<svg id="Group_1830" data-name="Group 1830" xmlns="http://www.w3.org/2000/svg" width="15.437" height="15.436" viewBox="0 0 15.437 15.436">
  <path id="Path_3156" data-name="Path 3156" d="M234.922,332.68a6.409,6.409,0,1,0,4.563,1.884,6.389,6.389,0,0,0-4.563-1.884Zm-1.156,8.943h0a.856.856,0,0,1-.231-.039,1.092,1.092,0,0,1-.19-.145l-1.451-1.45a.542.542,0,0,1-.176-.453.577.577,0,0,1,.176-.439.586.586,0,0,1,.467-.172.579.579,0,0,1,.44.172l.965,1,3.29-3.276a.6.6,0,0,1,.453-.177.623.623,0,0,1,.439.177.57.57,0,0,1,.176.452.51.51,0,0,1-.176.426l-3.714,3.743a1.524,1.524,0,0,0-.2.145.916.916,0,0,1-.264.039Zm1.156,5.221h0a7.736,7.736,0,1,1,5.45-2.265,7.676,7.676,0,0,1-5.45,2.265Z" transform="translate(-227.201 -331.407)" fill="#fff" fill-rule="evenodd"/>
</svg>
