<svg id="_6647_Converted_" data-name="6647 [Converted]" xmlns="http://www.w3.org/2000/svg" width="22.469" height="24.796" viewBox="0 0 22.469 24.796">
  <path id="Path_2994" data-name="Path 2994" d="M246.188,68.516a.352.352,0,0,1-.258-.1,3.643,3.643,0,0,1-.9-1.6,4.152,4.152,0,0,1-3.164,0,3.643,3.643,0,0,1-.9,1.6.39.39,0,0,1-.581-.035.467.467,0,0,1,.032-.626,3.475,3.475,0,0,0,.807-1.67.389.389,0,0,1,.226-.278.328.328,0,0,1,.355,0,3.518,3.518,0,0,0,3.325,0,.327.327,0,0,1,.355,0,.608.608,0,0,1,.226.278,3.209,3.209,0,0,0,.807,1.67.467.467,0,0,1,.032.626A.515.515,0,0,1,246.188,68.516Z" transform="translate(-232.178 -50.714)" fill="#56c596"/>
  <path id="Path_2995" data-name="Path 2995" d="M262.536,47.345a1.307,1.307,0,0,1-.71-.209.477.477,0,0,1-.226-.383V43.692a.431.431,0,0,1,.226-.383,1.307,1.307,0,0,1,.71-.209,1.927,1.927,0,0,1,1.679,2.123A1.95,1.95,0,0,1,262.536,47.345Zm-.129-.87c.517.1.969-.487.969-1.218s-.452-1.322-.969-1.218Z" transform="translate(-246.621 -35.946)" fill="#56c596"/>
  <path id="Path_2996" data-name="Path 2996" d="M232.179,47.345a2.181,2.181,0,0,1,0-4.245,1.307,1.307,0,0,1,.71.209.477.477,0,0,1,.226.383v3.062a.431.431,0,0,1-.226.383A1.391,1.391,0,0,1,232.179,47.345Zm0-3.34c-.452,0-.872.557-.872,1.218,0,.731.452,1.322.968,1.218V44Z" transform="translate(-225.561 -35.946)" fill="#56c596"/>
  <path id="Path_2997" data-name="Path 2997" d="M240.552,50.73A4.734,4.734,0,0,1,236,45.824V41.092a.44.44,0,0,1,.161-.348.422.422,0,0,1,.355-.07c.032,0,1.776.522,2.873.9a6.9,6.9,0,0,0,5-.8.427.427,0,0,1,.452-.07.454.454,0,0,1,.258.418v4.767A4.758,4.758,0,0,1,240.552,50.73Zm-3.745-9.047v4.176a3.723,3.723,0,1,0,7.425,0V41.823a7.53,7.53,0,0,1-5.1.557C238.421,42.171,237.42,41.857,236.807,41.684Z" transform="translate(-229.285 -34.355)" fill="#56c596"/>
  <path id="Path_2998" data-name="Path 2998" d="M242.13,50.436a1.221,1.221,0,1,1,1.13-1.218A1.169,1.169,0,0,1,242.13,50.436Zm0-1.566a.314.314,0,1,0,.291.313A.267.267,0,0,0,242.13,48.87Z" transform="translate(-232.671 -39.141)" fill="#56c596"/>
  <path id="Path_2999" data-name="Path 2999" d="M253.23,50.436a1.221,1.221,0,1,1,1.13-1.218A1.191,1.191,0,0,1,253.23,50.436Zm0-1.566a.314.314,0,1,0,.291.313A.3.3,0,0,0,253.23,48.87Z" transform="translate(-240.188 -39.141)" fill="#56c596"/>
  <path id="Path_3000" data-name="Path 3000" d="M230.789,38.841a.435.435,0,0,1-.42-.418c-.1-2.4.291-4.245,1.194-5.463a.367.367,0,0,1,.581-.07.434.434,0,0,1,.065.626,7.885,7.885,0,0,0-1,4.906.465.465,0,0,1-.42.418Z" transform="translate(-225.463 -29.217)" fill="#56c596"/>
  <path id="Path_3001" data-name="Path 3001" d="M241.257,26.276a.393.393,0,0,1-.387-.348.418.418,0,0,1,.323-.522,5.09,5.09,0,0,1,1.55-.1c.484-1.253,2.292-1.775,4.294-1.218a.452.452,0,0,1,.291.557.412.412,0,0,1-.517.313c-1.743-.522-3.164,0-3.357.766a.134.134,0,0,1-.032.1.408.408,0,0,1-.258.348.587.587,0,0,1-.258.035,4.55,4.55,0,0,0-1.582.035C241.322,26.276,241.29,26.276,241.257,26.276Z" transform="translate(-232.573 -23.402)" fill="#56c596"/>
  <path id="Path_3002" data-name="Path 3002" d="M267.52,38.6a.445.445,0,0,1-.42-.452V32.58a.412.412,0,0,1,.517-.313.485.485,0,0,1,.291.418v5.428a.4.4,0,0,1-.387.487Z" transform="translate(-250.345 -28.87)" fill="#56c596"/>
  <path id="Path_3003" data-name="Path 3003" d="M249.324,31.809c-1.969,0-2.841-2.018-3.035-3.1a.442.442,0,0,1,.323-.522.413.413,0,0,1,.484.348c.032.1.452,2.366,2.227,2.366h.065a.414.414,0,0,1,.42.418.419.419,0,0,1-.387.452A.113.113,0,0,1,249.324,31.809Z" transform="translate(-236.25 -26.22)" fill="#56c596"/>
  <path id="Path_3004" data-name="Path 3004" d="M238.95,79H220.42a.445.445,0,0,1-.42-.452c0-4.106,2.615-7.446,5.811-7.446h1.162a.454.454,0,0,1,0,.9h-1.162c-2.647,0-4.778,2.714-4.971,6.089H238.53c-.161-3.41-2.324-6.089-4.971-6.089H232.4a.454.454,0,0,1,0-.9h1.162c3.2,0,5.811,3.34,5.811,7.446A.445.445,0,0,1,238.95,79Z" transform="translate(-218.45 -54.203)" fill="#56c596"/>
  <path id="Path_3005" data-name="Path 3005" d="M248.2,60.7H246.42a.454.454,0,0,1,0-.9H248.2a.445.445,0,0,1,.42.452A.423.423,0,0,1,248.2,60.7Z" transform="translate(-236.057 -46.835)" fill="#56c596"/>
  <path id="Path_3006" data-name="Path 3006" d="M233.009,26.5a.41.41,0,0,1-.387-.313l-.42-1.427-.646.7a.4.4,0,0,1-.387.1.4.4,0,0,1-.291-.313l-.613-2.123a.465.465,0,0,1,.258-.557.417.417,0,0,1,.517.278l.42,1.427.646-.7a.4.4,0,0,1,.387-.1.4.4,0,0,1,.291.313l.613,2.123a.465.465,0,0,1-.258.557A.23.23,0,0,1,233.009,26.5Z" transform="translate(-225.39 -22.545)" fill="#56c596"/>
  <path id="Path_3007" data-name="Path 3007" d="M260.446,26.492a.183.183,0,0,1-.129-.035.435.435,0,0,1-.258-.557l.613-2.123a.455.455,0,0,1,.291-.313.4.4,0,0,1,.387.1l.646.7.42-1.427a.392.392,0,0,1,.517-.278.435.435,0,0,1,.258.557l-.613,2.123a.455.455,0,0,1-.291.313.4.4,0,0,1-.387-.1l-.646-.7-.42,1.427A.363.363,0,0,1,260.446,26.492Z" transform="translate(-245.564 -22.539)" fill="#56c596"/>
  <ellipse id="Ellipse_69" data-name="Ellipse 69" cx="0.355" cy="0.383" rx="0.355" ry="0.383" transform="translate(8.91 12.061)" fill="#56c596"/>
  <ellipse id="Ellipse_70" data-name="Ellipse 70" cx="0.484" cy="0.522" rx="0.484" ry="0.522" transform="translate(9.717 18.811)" fill="#56c596"/>
  <ellipse id="Ellipse_71" data-name="Ellipse 71" cx="0.484" cy="0.522" rx="0.484" ry="0.522" transform="translate(12.816 21.073)" fill="#56c596"/>
  <ellipse id="Ellipse_72" data-name="Ellipse 72" cx="0.484" cy="0.522" rx="0.484" ry="0.522" transform="translate(15.851 22.186)" fill="#56c596"/>
  <ellipse id="Ellipse_73" data-name="Ellipse 73" cx="0.484" cy="0.522" rx="0.484" ry="0.522" transform="translate(16.27 20.203)" fill="#56c596"/>
  <ellipse id="Ellipse_74" data-name="Ellipse 74" cx="0.484" cy="0.522" rx="0.484" ry="0.522" transform="translate(8.006 21.977)" fill="#56c596"/>
  <ellipse id="Ellipse_75" data-name="Ellipse 75" cx="0.452" cy="0.487" rx="0.452" ry="0.487" transform="translate(13.3 11.956)" fill="#56c596"/>
  <ellipse id="Ellipse_76" data-name="Ellipse 76" cx="0.452" cy="0.487" rx="0.452" ry="0.487" transform="translate(5.52 20.62)" fill="#56c596"/>
  <ellipse id="Ellipse_77" data-name="Ellipse 77" cx="0.452" cy="0.487" rx="0.452" ry="0.487" transform="translate(3.712 22.012)" fill="#56c596"/>
  <path id="Path_3008" data-name="Path 3008" d="M237.249,92.1H215.62a.454.454,0,0,1,0-.9h21.629a.454.454,0,0,1,0,.9Z" transform="translate(-215.2 -67.309)" fill="#56c596"/>
</svg>
