<svg id="atm-card" xmlns="http://www.w3.org/2000/svg" width="21.962" height="15.428" viewBox="0 0 21.962 15.428">
  <path id="Path_564" data-name="Path 564" d="M12.2,20.4V10.453a2.2,2.2,0,0,0-2.2,2.2v9.943a2.2,2.2,0,0,0,2.2,2.2H28.668a2.2,2.2,0,0,0,2.2-2.2H14.392A2.2,2.2,0,0,1,12.2,20.4Zm0,0" transform="translate(-9.451 -9.879)" fill="none"/>
  <g id="Group_253" data-name="Group 253" transform="translate(0 2.92)">
    <path id="Path_565" data-name="Path 565" d="M51.008,156.126a2.364,2.364,0,1,1,2.364-2.364A2.364,2.364,0,0,1,51.008,156.126Zm0-3.629a1.266,1.266,0,1,0,1.266,1.266A1.265,1.265,0,0,0,51.008,152.5Zm0,0" transform="translate(-45.974 -146.006)" fill="#56c596"/>
    <path id="Path_566" data-name="Path 566" d="M93.692,156.126a2.364,2.364,0,1,1,2.364-2.364A2.364,2.364,0,0,1,93.692,156.126Zm0-3.629a1.266,1.266,0,1,0,1.266,1.266A1.266,1.266,0,0,0,93.692,152.5Zm0,0" transform="translate(-86.314 -146.006)" fill="#56c596"/>
    <path id="Path_567" data-name="Path 567" d="M21.413,54.29H.549a.549.549,0,0,1,0-1.1H21.413a.549.549,0,0,1,0,1.1Zm0,0" transform="translate(0 -53.191)" fill="#56c596"/>
  </g>
  <path id="Path_568" data-name="Path 568" d="M21.962,2.745A2.745,2.745,0,0,0,19.217,0H2.745A2.745,2.745,0,0,0,0,2.745v9.938a2.745,2.745,0,0,0,2.745,2.745H19.217a2.745,2.745,0,0,0,2.745-2.745ZM2.745,1.1H19.217A1.67,1.67,0,0,1,20.864,2.77V5.93H1.1V2.77A1.67,1.67,0,0,1,2.745,1.1ZM19.217,14.385H2.745A1.67,1.67,0,0,1,1.1,12.713V7.028H20.864v5.685A1.67,1.67,0,0,1,19.217,14.385Zm0,0" fill="#56c596"/>
</svg>
