<svg xmlns="http://www.w3.org/2000/svg" width="22.09" height="20.22" viewBox="0 0 22.09 20.22">
  <g id="Attention" transform="translate(1.04 1)">
    <path id="Path" d="M7.987,1.139.535,12.83a3.536,3.536,0,0,0,3.073,5.39H16.359a3.514,3.514,0,0,0,3.073-5.39L11.981,1.139A2.321,2.321,0,0,0,7.987,1.139Z" transform="translate(0.003)" fill="none" stroke="#ffcf5c" stroke-linecap="round" stroke-linejoin="round" stroke-miterlimit="10" stroke-width="2"/>
    <path id="Path-2" data-name="Path" d="M2.508,6.481H.656L.008,1.852A1.689,1.689,0,0,1,1.582,0h0A1.544,1.544,0,0,1,3.156,1.852Z" transform="translate(8.403 4.834)" fill="none" stroke="#ffcf5c" stroke-linecap="round" stroke-linejoin="round" stroke-miterlimit="10" stroke-width="2"/>
    <path id="Path-3" data-name="Path" d="M2.315,2.778H1.389A1.424,1.424,0,0,1,0,1.389H0A1.424,1.424,0,0,1,1.389,0h.926A1.424,1.424,0,0,1,3.7,1.389h0A1.424,1.424,0,0,1,2.315,2.778Z" transform="translate(8.135 12.501)" fill="none" stroke="#ffcf5c" stroke-linecap="round" stroke-linejoin="round" stroke-miterlimit="10" stroke-width="2"/>
  </g>
</svg>
