<svg xmlns="http://www.w3.org/2000/svg" width="72.655" height="61.755" viewBox="0 0 72.655 61.755">
  <g id="Group_251" data-name="Group 251" transform="translate(0 0)">
    <path id="Path_1005" data-name="Path 1005" d="M907.193,1517.749h-.4v-3.937H904.72v3.938H883.808v-3.937h-2.075v3.938h-.4a1.038,1.038,0,0,0-1.037,1.038v33.36a1.038,1.038,0,0,0,1.037,1.038h.4v7.168H870.405a2.157,2.157,0,0,1-2.155-2.155v-2.774h.559a1.038,1.038,0,0,0,1.038-1.038V1549.3a11.6,11.6,0,1,0-8.141,0v5.087a1.038,1.038,0,0,0,1.037,1.038h.239v2.774a7.431,7.431,0,0,0,7.422,7.422h11.327v1.437H849.014a2.157,2.157,0,0,1-2.155-2.155v-10.363s0-.007,0-.01l1.209-8.78a1.042,1.042,0,0,0,.009-.125,9.578,9.578,0,0,0,2.3-2.45,16.627,16.627,0,0,0,0-17.171,9.577,9.577,0,0,0-2.3-2.45c0-.01,0-.02,0-.03v-3.308a1.037,1.037,0,0,0-1.037-1.038H841.3a1.037,1.037,0,0,0-1.037,1.038v3.308c0,.01,0,.02,0,.03a9.574,9.574,0,0,0-2.3,2.45,16.629,16.629,0,0,0,0,17.171,9.58,9.58,0,0,0,2.3,2.45,1.053,1.053,0,0,0,.009.125l1.209,8.78a1.035,1.035,0,0,0,.111.342V1564.9a7.431,7.431,0,0,0,7.422,7.422h32.719v3.243h2.075v-3.243h7.986a7.431,7.431,0,0,0,7.422-7.422v-11.717h5.5v22.382H906.8v-22.382h.4a1.037,1.037,0,0,0,1.038-1.038v-33.36A1.038,1.038,0,0,0,907.193,1517.749Zm-1.037,33.359h-5.749a9.583,9.583,0,0,0,2.077-6.51v-13.471c0-5.3-2.678-8.585-6.989-8.585H882.372v-2.719h23.784v31.285Zm-9.014,13.792a5.353,5.353,0,0,1-5.347,5.347h-42.78a5.353,5.353,0,0,1-5.347-5.347v-9.477h1.117v9.477a4.235,4.235,0,0,0,4.23,4.23h42.78a4.235,4.235,0,0,0,4.23-4.23v-11.717h1.117Zm-59.491-30.313a13.517,13.517,0,0,1,2.039-7.434,6.44,6.44,0,0,1,3.037-2.594h2.887a6.438,6.438,0,0,1,3.037,2.594,14.572,14.572,0,0,1,0,14.868,6.528,6.528,0,0,1-2.913,2.547H842.6a6.528,6.528,0,0,1-2.913-2.547A13.52,13.52,0,0,1,837.651,1534.587Zm4.686-12.1v-1.234h3.668v1.234h-3.668Zm.153,24.159h3.363l-.011.079-.02.146-.892,6.479h-1.516l-.784-5.69-.129-.935Zm16.55-1.475a9.522,9.522,0,1,1,9.473,2.391,1.02,1.02,0,0,0-.262.123,1.035,1.035,0,0,0-.479.871v4.795h-3.991v-4.795a1.038,1.038,0,0,0-.741-.995l-.057-.019A9.543,9.543,0,0,1,859.039,1545.168Zm6.019,10.254h1.117v2.774a4.235,4.235,0,0,0,4.23,4.23h14.527a4.235,4.235,0,0,0,4.23-4.23v-5.013h1.117v5.013a5.353,5.353,0,0,1-5.347,5.347H870.406a5.353,5.353,0,0,1-5.347-5.347Zm17.314-30.805h7.816v26.491h-7.816Zm9.89,21.18v-21.18h1.882v26.492h-1.882Zm5.917,4.536a4.018,4.018,0,0,1-1.037.521,4.752,4.752,0,0,1-.921.208v-26.4c3.763.471,4.19,4.62,4.19,6.465V1544.6a8.622,8.622,0,0,1-1.193,4.674A4.235,4.235,0,0,1,898.18,1550.333Zm-14.372,2.849h3.279v5.013a2.157,2.157,0,0,1-2.155,2.155h-1.125Zm0,12.436h1.125a7.431,7.431,0,0,0,7.422-7.423v-5.013h1.594V1564.9a2.157,2.157,0,0,1-2.155,2.155h-7.986Z" transform="translate(-835.576 -1513.811)" fill="#ffbe88"/>
    <path id="Path_1006" data-name="Path 1006" d="M979.75,1632.795a8.237,8.237,0,0,0,3.192.062,8.135,8.135,0,0,0,4.378-2.282,8.26,8.26,0,1,0-7.571,2.22Zm6.1-12.383a6.148,6.148,0,1,1-4.348-1.8A6.155,6.155,0,0,1,985.854,1620.411Z" transform="translate(-951.305 -1600.14)" fill="#ffbe88"/>
    <path id="Path_1007" data-name="Path 1007" d="M999.268,1644a1.706,1.706,0,0,0,1.921,1.921l1.217,1.217.734-.734.734-.734-1.217-1.217a1.706,1.706,0,0,0-1.921-1.921l-2.83-2.831-.734.734-.734.734Z" transform="translate(-970.761 -1619.61)" fill="#ffbe88"/>
  </g>
</svg>
