<svg id="atm-card" xmlns="http://www.w3.org/2000/svg" width="64.788" height="45.514" viewBox="0 0 64.788 45.514">
  <path id="Path_564" data-name="Path 564" d="M16.479,39.785V10.453A6.479,6.479,0,0,0,10,16.932V46.264a6.479,6.479,0,0,0,6.479,6.479H65.07a6.479,6.479,0,0,0,6.479-6.479H22.958A6.479,6.479,0,0,1,16.479,39.785Zm0,0" transform="translate(-8.38 -8.76)" fill="none"/>
  <g id="Group_253" data-name="Group 253" transform="translate(0 8.615)">
    <path id="Path_565" data-name="Path 565" d="M55.617,165.344a6.973,6.973,0,1,1,6.973-6.973A6.973,6.973,0,0,1,55.617,165.344Zm0-10.707a3.734,3.734,0,1,0,3.734,3.734A3.733,3.733,0,0,0,55.617,154.638Zm0,0" transform="translate(-40.766 -135.492)" fill="#3b8767"/>
    <path id="Path_566" data-name="Path 566" d="M98.3,165.344a6.973,6.973,0,1,1,6.973-6.973A6.973,6.973,0,0,1,98.3,165.344Zm0-10.707a3.734,3.734,0,1,0,3.734,3.734A3.734,3.734,0,0,0,98.3,154.638Zm0,0" transform="translate(-76.536 -135.492)" fill="#3b8767"/>
    <path id="Path_567" data-name="Path 567" d="M63.168,56.431H1.62a1.62,1.62,0,0,1,0-3.239H63.168a1.62,1.62,0,0,1,0,3.239Zm0,0" transform="translate(0 -53.191)" fill="#3b8767"/>
  </g>
  <path id="Path_568" data-name="Path 568" d="M64.788,8.1A8.1,8.1,0,0,0,56.69,0H8.1A8.1,8.1,0,0,0,0,8.1V37.415a8.1,8.1,0,0,0,8.1,8.1H56.69a8.1,8.1,0,0,0,8.1-8.1ZM8.1,3.239H56.69a4.928,4.928,0,0,1,4.859,4.932v9.321H3.239V8.172A4.928,4.928,0,0,1,8.1,3.239Zm48.591,39.2H8.1A4.928,4.928,0,0,1,3.239,37.5V20.732H61.549V37.5A4.928,4.928,0,0,1,56.69,42.436Zm0,0" fill="#3b8767"/>
</svg>
