<svg xmlns="http://www.w3.org/2000/svg" width="35.447" height="30.385" viewBox="0 0 35.447 30.385">
  <path id="Path_3014" data-name="Path 3014" d="M676.281,192.629h-3.038v-8.1a1.012,1.012,0,0,0-1.013-1.013H660.077a1.012,1.012,0,0,0-1.013,1.013v8.1h-3.038V166.3h20.256Zm-9.115-7.09h4.051v7.09h-4.051Zm-2.026,7.09H661.09v-7.09h4.051Zm23.294-20.257H678.307v-7.09a1.012,1.012,0,0,0-1.013-1.013H655.013A1.012,1.012,0,0,0,654,165.283v28.359a1.013,1.013,0,0,0,1.013,1.013h22.281a1.013,1.013,0,0,0,1.013-1.013V174.4h9.115v18.231h-4.051a1.013,1.013,0,0,0,0,2.026h5.064a1.013,1.013,0,0,0,1.013-1.013V173.385a1.012,1.012,0,0,0-1.013-1.013" transform="translate(-654 -164.27)" fill="#3b8767"/>
</svg>
