<svg xmlns="http://www.w3.org/2000/svg" width="26.696" height="38.301" viewBox="0 0 26.696 38.301">
  <path id="Path_3044" data-name="Path 3044" d="M609.34,187.587a4.6,4.6,0,0,0,1.106-3.1v-1.728a7.7,7.7,0,0,0,5.8,0v1.728a4.619,4.619,0,0,0,1.732,3.717,27.409,27.409,0,0,0-4.053,5.816,29.45,29.45,0,0,0-4.588-6.429M606.112,174a21.085,21.085,0,0,0,9.647-5.363,10.967,10.967,0,0,0,2.045,2.794,1.135,1.135,0,0,0,.761.29,1.163,1.163,0,0,0,.78-2.023,11.187,11.187,0,0,1-2.031-3.083,11.259,11.259,0,0,0,.666-1.247,8.392,8.392,0,0,1,2.911,6.352c0,4.207-3.364,9.285-7.544,9.285-3.441,0-6.324-3.441-7.235-7.006m7.235-10.4a6.8,6.8,0,0,1,2.625.539c-2.15,5.137-8.814,7.182-10.165,7.549.018-4.388,3.463-8.087,7.539-8.087m13.2,29.6a16.326,16.326,0,0,0-6.284-6.26,2.582,2.582,0,0,1-1.691-2.452v-3.088a12.852,12.852,0,0,0,4.642-9.678c0-5.663-4.516-10.446-9.865-10.446s-9.865,4.783-9.865,10.446a12.856,12.856,0,0,0,4.643,9.678v3.088a2.575,2.575,0,0,1-1.691,2.452,16.326,16.326,0,0,0-6.284,6.26,1.165,1.165,0,0,0,.44,1.583,1.179,1.179,0,0,0,.571.15,1.153,1.153,0,0,0,1.011-.59A14.145,14.145,0,0,1,607.49,189c2.539,2.87,5.168,6.171,5.277,9.453a1.59,1.59,0,0,0,.045.2,1.623,1.623,0,0,0,.05.2,1.117,1.117,0,0,0,.126.2,1.438,1.438,0,0,0,.114.164,1.188,1.188,0,0,0,.2.14,1.081,1.081,0,0,0,.164.109.987.987,0,0,0,.258.058.744.744,0,0,0,.168.042h.072a.686.686,0,0,0,.168-.042.987.987,0,0,0,.258-.058,1.082,1.082,0,0,0,.164-.109,1.025,1.025,0,0,0,.2-.14,1.423,1.423,0,0,0,.114-.164,1.124,1.124,0,0,0,.126-.2,1.634,1.634,0,0,0,.05-.2,1.6,1.6,0,0,0,.045-.2c.1-3.115,2.476-6.243,4.887-9a14.673,14.673,0,0,1,4.547,4.892,1.154,1.154,0,0,0,1.011.59,1.179,1.179,0,0,0,.571-.15,1.161,1.161,0,0,0,.44-1.583" transform="translate(-600 -161.27)" fill="#3b8767"/>
</svg>
