<svg xmlns="http://www.w3.org/2000/svg" width="26.73" height="32.668" viewBox="0 0 26.73 32.668">
  <path id="Path_3047" data-name="Path 3047" d="M669.636,40.632l9.034,13.551-.233.472a.974.974,0,0,0,.093,1.013c.016.027.02.058.035.085a1.485,1.485,0,0,1-2.417,1.725.308.308,0,0,0-.055-.046.837.837,0,0,0-.146-.135.863.863,0,0,0-.151-.1.744.744,0,0,0-.177-.062.823.823,0,0,0-.194-.039.365.365,0,0,0-.069-.016H674.4l-9.056-13.585ZM687.73,65a.989.989,0,0,0-.99-.99H670.9a.99.99,0,1,0,0,1.98h.828l-1.3,2.657a12.851,12.851,0,0,1-4.184-20.225l6.8,10.2a.992.992,0,0,0,.824.441h1.071a3.451,3.451,0,0,0,5.5-4l.252-.511a.988.988,0,0,0-.062-.99l-9.9-14.85a.993.993,0,0,0-1.373-.275l-5.94,3.96a.99.99,0,0,0-.274,1.373l1.968,2.955a14.867,14.867,0,0,0,5.4,24.139c.016.008.032,0,.043.012a1.028,1.028,0,0,0,.341.066h6.93a.99.99,0,0,0,0-1.98h-5.348l1.446-2.97H683.1l1.729,4.327a1,1,0,0,0,.921.623,1.014,1.014,0,0,0,.367-.07,1,1,0,0,0,.553-1.288l-1.438-3.593h1.508a.987.987,0,0,0,.99-.99" transform="translate(-661 -38.271)" fill="#3b8767"/>
</svg>
