<svg xmlns="http://www.w3.org/2000/svg" width="39.244" height="28.207" viewBox="0 0 39.244 28.207">
  <path id="Mail_2_Outlined" d="M129.113,36.82H102.132A6.15,6.15,0,0,0,96,42.952V58.9a6.15,6.15,0,0,0,6.132,6.132h26.981a6.15,6.15,0,0,0,6.132-6.132V42.952A6.15,6.15,0,0,0,129.113,36.82Zm-26.981,2.453h26.981a3.69,3.69,0,0,1,1.325.258L115.3,52.334,100.4,39.727A3.6,3.6,0,0,1,102.132,39.273ZM98.453,58.9V42.952a3.68,3.68,0,0,1,.282-1.423l10.3,8.72L98.808,60.477A3.829,3.829,0,0,1,98.453,58.9Zm30.66,3.679H102.132a3.655,3.655,0,0,1-1.582-.368l10.363-10.363,3.593,3.041a1.227,1.227,0,0,0,1.594,0l3.937-3.336,10.78,10.6A3.814,3.814,0,0,1,129.113,62.574Zm3.679-3.679a3.765,3.765,0,0,1-.294,1.447L121.914,49.955l10.13-8.572a1.37,1.37,0,0,0,.233-.294,3.7,3.7,0,0,1,.527,1.852V58.9Z" transform="translate(-96 -36.82)" fill="#707070"/>
</svg>
