<svg xmlns="http://www.w3.org/2000/svg" width="18.485" height="24.647" viewBox="0 0 18.485 24.647">
  <path id="Path_3052" data-name="Path 3052" d="M737.115,122.547H721.369V104.062h1.369v.685a.683.683,0,0,0,.685.685h11.638a.683.683,0,0,0,.685-.685v-.685h1.369v15.746h-.4l-1.169-1.169a.684.684,0,0,0-.968,0l-.637.636-.981-2.461a.686.686,0,0,0-1.273,0l-.981,2.461-.637-.636a.684.684,0,0,0-.968,0l-1.369,1.369a.684.684,0,0,0,.968.968l.885-.885.885.885a.685.685,0,0,0,1.121-.23l.733-1.835.733,1.835a.684.684,0,0,0,.5.417.766.766,0,0,0,.136.014.689.689,0,0,0,.484-.2l.885-.885.885.885a.684.684,0,0,0,.484.2h.685Zm-13.008-19.854h2.054a.683.683,0,0,0,.685-.685,1.371,1.371,0,0,1,1.369-1.369h2.054a1.371,1.371,0,0,1,1.369,1.369.683.683,0,0,0,.685.685h2.054v1.369H724.108Zm13.692,0h-2.054v-.685a.684.684,0,0,0-.685-.685h-2.142a2.74,2.74,0,0,0-2.65-2.054h-2.054a2.74,2.74,0,0,0-2.65,2.054h-2.142a.684.684,0,0,0-.685.685v.685h-2.054a.684.684,0,0,0-.685.685v19.854a.683.683,0,0,0,.685.685H737.8a.683.683,0,0,0,.685-.685V103.378a.684.684,0,0,0-.685-.685" transform="translate(-720 -99.269)" fill="#56c596"/>
</svg>
