<svg xmlns="http://www.w3.org/2000/svg" width="24.051" height="26.693" viewBox="0 0 24.051 26.693">
  <g id="Group_1620" data-name="Group 1620" transform="translate(-251.936 -58.637)">
    <g id="Group_269" data-name="Group 269" transform="translate(251.936 58.637)">
      <ellipse id="Ellipse_19" data-name="Ellipse 19" cx="3.128" cy="3.128" rx="3.128" ry="3.128" transform="translate(4.632)" fill="#68b2a0"/>
      <ellipse id="Ellipse_20" data-name="Ellipse 20" cx="3.128" cy="3.128" rx="3.128" ry="3.128" transform="translate(12.433)" fill="#68b2a0"/>
      <path id="Path_1508" data-name="Path 1508" d="M600.262,108.024l-5.029-6.469a.957.957,0,0,0-.711-.355H580.678a.84.84,0,0,0-.764.48l-3.359,6.842a1.164,1.164,0,0,0,2.079,1.049L580.962,105l.5,4.425-1.049,9.294a1.5,1.5,0,0,0,2.986.355l.889-5.811.924,5.811a1.5,1.5,0,0,0,1.493,1.315h0c.906,0,3.11.018,3.714,0a1.078,1.078,0,0,0,1.049-1l.586-6.38.6,6.38a1.063,1.063,0,0,0,1.066.96h0a1.058,1.058,0,0,0,1.048-1.084l-.231-6.949h2.221l-1.6-6.913,3.554,4.105a1.077,1.077,0,0,0,1.386.071h0A1.18,1.18,0,0,0,600.262,108.024Z" transform="translate(-576.437 -93.843)" fill="#68b2a0"/>
    </g>
    <ellipse id="Ellipse_22" data-name="Ellipse 22" cx="1.813" cy="1.813" rx="1.813" ry="1.813" transform="translate(261.988 70.508)" fill="#fff"/>
    <path id="Path_1512" data-name="Path 1512" d="M624.272,155.585h0a.6.6,0,0,0-.053-.817l-2.843-2.7a.992.992,0,0,0-.657-.267h-2.986a.912.912,0,0,0-.657.267l-2.843,2.7a.6.6,0,0,0-.053.817h0a.631.631,0,0,0,.835.124l2.133-1.528.355,2.541-.675,5.42h1.742l.658-3.608.658,3.608h1.742l-.675-5.42.355-2.541,2.133,1.528A.628.628,0,0,0,624.272,155.585Z" transform="translate(-355.424 -76.813)" fill="#fff"/>
  </g>
</svg>
