<svg id="gear" xmlns="http://www.w3.org/2000/svg" width="24.219" height="23.744" viewBox="0 0 24.219 23.744">
  <g id="Group_84" data-name="Group 84" transform="translate(0.605 0.606)">
    <path id="Path_155" data-name="Path 155" d="M13.992,61.124l1.6-1.89a8.86,8.86,0,0,1-1.282-3.027l-2.5-.226V52.673l2.5-.226a8.86,8.86,0,0,1,1.282-3.027l-1.6-1.89L15.556,46l-.992-.807L12.175,47.53l1.6,1.89A8.86,8.86,0,0,0,12.5,52.447l-2.5.226v3.308l2.5.226a8.859,8.859,0,0,0,1.282,3.027l-1.6,1.89,2.388,2.34.992-.807Zm0,0" transform="translate(-10 -43.061)" fill="none"/>
    <path id="Path_156" data-name="Path 156" d="M295.9,46.758l.938-.763-.824-.807-1.2.976A9.262,9.262,0,0,1,295.9,46.758Zm0,0" transform="translate(-277.565 -43.057)" fill="none"/>
    <path id="Path_157" data-name="Path 157" d="M135.921,13.7a9.258,9.258,0,0,1,3.091-1.256l.23-2.445h-1.816l-.23,2.445a9.248,9.248,0,0,0-2,.662Zm0,0" transform="translate(-127.611 -10.004)" fill="none"/>
    <path id="Path_158" data-name="Path 158" d="M295.9,321.039a9.247,9.247,0,0,1-1.087.594l1.2.977.824-.807Zm0,0" transform="translate(-277.565 -302.207)" fill="none"/>
    <path id="Path_159" data-name="Path 159" d="M135.921,321.039l-.73.594a9.259,9.259,0,0,0,2,.662l.23,2.445h1.816l-.23-2.445A9.256,9.256,0,0,1,135.921,321.039Zm0,0" transform="translate(-127.611 -302.207)" fill="none"/>
  </g>
  <path id="Path_160" data-name="Path 160" d="M145.475,145.939a3.455,3.455,0,1,1,3.514-3.454A3.489,3.489,0,0,1,145.475,145.939Zm0-5.7a2.244,2.244,0,1,0,2.3,2.243A2.276,2.276,0,0,0,145.475,140.242Zm0,0" transform="translate(-133.366 -130.614)" fill="#205072"/>
  <path id="Path_161" data-name="Path 161" d="M13.8,23.744H10.42a.606.606,0,0,1-.6-.549l-.189-2.01A9.815,9.815,0,0,1,7.15,20.176l-1.6,1.3a.606.606,0,0,1-.806-.037L2.357,19.1a.605.605,0,0,1-.038-.824l1.316-1.551a9.426,9.426,0,0,1-1.02-2.41L.551,14.129a.606.606,0,0,1-.551-.6V10.218a.606.606,0,0,1,.551-.6l2.064-.187a9.426,9.426,0,0,1,1.02-2.41L2.319,5.467a.605.605,0,0,1,.038-.824L4.745,2.3a.606.606,0,0,1,.806-.037l1.6,1.3A9.821,9.821,0,0,1,9.628,2.559L9.817.549A.606.606,0,0,1,10.42,0H13.8a.606.606,0,0,1,.6.549l.189,2.01a9.822,9.822,0,0,1,2.478,1.008l1.6-1.3a.606.606,0,0,1,.806.037l2.388,2.34a.605.605,0,0,1,.038.824L20.583,7.018A9.428,9.428,0,0,1,21.6,9.429l2.064.187a.606.606,0,0,1,.551.6v3.308a.606.606,0,0,1-.551.6l-2.064.187a9.426,9.426,0,0,1-1.02,2.41L21.9,18.277a.605.605,0,0,1-.038.824L19.472,21.44a.606.606,0,0,1-.806.037l-1.6-1.3a9.822,9.822,0,0,1-2.478,1.008l-.189,2.01a.606.606,0,0,1-.6.549Zm-2.827-1.211h2.276l.179-1.9a.606.606,0,0,1,.48-.536,8.635,8.635,0,0,0,2.889-1.174.605.605,0,0,1,.707.041l1.51,1.229,1.6-1.566-1.239-1.46a.605.605,0,0,1-.043-.727,8.236,8.236,0,0,0,1.195-2.821.606.606,0,0,1,.537-.475l1.945-.175v-2.2L21.062,10.6a.6.6,0,0,1-.537-.475A8.233,8.233,0,0,0,19.33,7.3a.606.606,0,0,1,.043-.727l1.239-1.46-1.6-1.566L17.5,4.776a.605.605,0,0,1-.707.041,8.633,8.633,0,0,0-2.889-1.174.606.606,0,0,1-.48-.536l-.179-1.9H10.971l-.179,1.9a.606.606,0,0,1-.48.536A8.633,8.633,0,0,0,7.423,4.817a.605.605,0,0,1-.707-.041L5.206,3.547l-1.6,1.566,1.239,1.46a.605.605,0,0,1,.043.727,8.239,8.239,0,0,0-1.2,2.821.605.605,0,0,1-.537.475l-1.945.176v2.2l1.945.175a.605.605,0,0,1,.537.475,8.242,8.242,0,0,0,1.2,2.821.605.605,0,0,1-.043.727l-1.239,1.46,1.6,1.566,1.51-1.229a.606.606,0,0,1,.707-.041A8.628,8.628,0,0,0,10.312,20.1a.606.606,0,0,1,.48.536Zm0,0" transform="translate(0 0)" fill="#205072"/>
</svg>
