<svg xmlns="http://www.w3.org/2000/svg" width="13.778" height="15.2" viewBox="0 0 13.778 15.2">
  <g id="Group_1623" data-name="Group 1623" transform="translate(-6322.735 -13529)">
    <g id="iconfinder_list_4200562" transform="translate(6322.735 13529)">
      <path id="Path_2946" data-name="Path 2946" d="M1858.9,1844.346q5.33.194,10.647,0c2.088-.065,2.1-3.307,0-3.242q-5.3.168-10.647,0C1856.815,1841.026,1856.828,1844.268,1858.9,1844.346Z" transform="translate(-1857.342 -1841.103)" fill="#fff"/>
      <path id="Path_2947" data-name="Path 2947" d="M2291.158,2661.039h6.354a1.621,1.621,0,1,0,0-3.242h-6.354a1.621,1.621,0,1,0,0,3.242Z" transform="translate(-2286.523 -2652.102)" fill="#fff"/>
      <path id="Path_2948" data-name="Path 2948" d="M2744.973,3546.351l3.475.091a1.621,1.621,0,0,0,0-3.242l-3.475-.091a1.621,1.621,0,0,0,0,3.242Z" transform="translate(-2737.174 -3531.242)" fill="#fff"/>
    </g>
  </g>
</svg>
