<svg xmlns="http://www.w3.org/2000/svg" width="21" height="21.756" viewBox="0 0 21 21.756">
  <g id="healthcare-medical-healthcare" transform="translate(1 1)">
    <g id="healthcare-medical-healthcare-2" data-name="healthcare-medical-healthcare" transform="translate(0 0)">
      <path id="Path" d="M2.923,8.049V2.2a.691.691,0,0,0-.731-.732H1.462A1.467,1.467,0,0,1,0,0H0" transform="translate(7.308 0)" fill="none" stroke="#56c596" stroke-linecap="round" stroke-linejoin="round" stroke-miterlimit="10" stroke-width="2"/>
      <path id="Path-2" data-name="Path" d="M0,0A5.087,5.087,0,0,0,5.115,5.122h0A5.087,5.087,0,0,0,10.231,0" transform="translate(0 8.049)" fill="none" stroke="#56c596" stroke-linecap="round" stroke-linejoin="round" stroke-miterlimit="10" stroke-width="2"/>
      <path id="Path-3" data-name="Path" d="M2.923,0h0A1.467,1.467,0,0,1,1.462,1.463H.731A.691.691,0,0,0,0,2.2V8.049" transform="translate(0 0)" fill="none" stroke="#56c596" stroke-linecap="round" stroke-linejoin="round" stroke-miterlimit="10" stroke-width="2"/>
      <ellipse id="Oval" cx="2.923" cy="2.927" rx="2.923" ry="2.927" transform="translate(13.154 2.195)" fill="none" stroke="#56c596" stroke-linecap="round" stroke-linejoin="round" stroke-miterlimit="10" stroke-width="2"/>
      <path id="Path-4" data-name="Path" d="M.75.75h0" transform="translate(15.327 4.372)" fill="none" stroke="#56c596" stroke-linecap="round" stroke-linejoin="round" stroke-miterlimit="10" stroke-width="2"/>
      <path id="Path-5" data-name="Path" d="M0,5.122v1.1a5.524,5.524,0,0,0,5.481,5.488h0A5.524,5.524,0,0,0,10.962,6.22V0" transform="translate(5.115 8.049)" fill="none" stroke="#56c596" stroke-linecap="round" stroke-linejoin="round" stroke-miterlimit="10" stroke-width="2"/>
    </g>
  </g>
</svg>
