<svg xmlns="http://www.w3.org/2000/svg" width="23.739" height="23.75" viewBox="0 0 23.739 23.75">
  <g id="Icons_home" data-name="Icons/ home" transform="translate(1 21)">
    <path id="Path" d="M10.87,4.531l6.612,7.25h4.257L10.87,0,0,11.781H3.623V21.75H18.116V15.406" transform="translate(0 -20)" fill="none" stroke="#205072" stroke-linecap="round" stroke-linejoin="round" stroke-miterlimit="10" stroke-width="2"/>
    <g id="Path-2" data-name="Path" transform="translate(8.152 -9.125)" fill="none" stroke-linecap="round" stroke-linejoin="round" stroke-miterlimit="10">
      <path d="M5.435,2.719c0,2.447-2.717,4.531-2.717,4.531S0,5.166,0,2.719A2.67,2.67,0,0,1,2.717,0,2.67,2.67,0,0,1,5.435,2.719Z" stroke="none"/>
      <path d="M 2.717391490936279 2 C 2.281591415405273 2 2.000001430511475 2.282129764556885 2.000001430511475 2.71875 C 2.000001430511475 3.253844261169434 2.319138288497925 3.859328031539917 2.718437671661377 4.394664764404297 C 3.115443468093872 3.860849142074585 3.434781551361084 3.25446629524231 3.434781551361084 2.71875 C 3.434781551361084 2.282129764556885 3.153191566467285 2 2.717391490936279 2 M 2.717391490936279 0 C 4.257241249084473 0 5.434781551361084 1.178120136260986 5.434781551361084 2.71875 C 5.434781551361084 5.165619850158691 2.717391490936279 7.25 2.717391490936279 7.25 C 2.717391490936279 7.25 1.430511474609375e-06 5.165619850158691 1.430511474609375e-06 2.71875 C 1.430511474609375e-06 1.178120136260986 1.177531719207764 0 2.717391490936279 0 Z" stroke="none" fill="#205072"/>
    </g>
  </g>
</svg>
