<svg id="Group_124" data-name="Group 124" xmlns="http://www.w3.org/2000/svg" width="23.528" height="24.439" viewBox="0 0 23.528 24.439">
  <path id="Path_638" data-name="Path 638" d="M92.656,277.933H86.617a.428.428,0,0,1-.4-.285l-1.082-3.532-5.469-.342a1.449,1.449,0,0,1-1.367-1.481,1.526,1.526,0,0,1,1.31-1.481l7.007-.911h.171l1.6.4a5.327,5.327,0,0,0,2.678,0l1.6-.4h.171l7.007.911a1.526,1.526,0,0,1,1.31,1.481,1.49,1.49,0,0,1-1.367,1.481l-5.469.342-1.082,3.532A1.063,1.063,0,0,1,92.656,277.933Zm-5.754-.8h5.469l1.082-3.475a.361.361,0,0,1,.342-.285l5.754-.342a.684.684,0,0,0,.627-.684.677.677,0,0,0-.57-.684l-6.893-.911-1.538.4a6.752,6.752,0,0,1-3.019,0l-1.538-.4-6.893.911a.677.677,0,0,0-.57.684.728.728,0,0,0,.627.684l5.754.342a.361.361,0,0,1,.342.285Z" transform="translate(-78.3 -263.178)" fill="#56c596"/>
  <path id="Path_639" data-name="Path 639" d="M99.834,293.039a1.591,1.591,0,0,1-1.139-.456l-6.95-6.153-3.874.854a.312.312,0,0,0-.228.342l.171,3.589a1.991,1.991,0,0,1-.456,1.253,1.767,1.767,0,0,1-1.253.513h-.057a1.721,1.721,0,0,1-1.709-1.424l-.855-4.728a1.924,1.924,0,0,1,.911-1.937l4.273-2.336a.209.209,0,0,1,.171-.057h6.039a.492.492,0,0,1,.342.171l5.982,7.52a1.752,1.752,0,0,1-1.367,2.848Zm-7.976-7.463c.114,0,.171.057.285.114l7.064,6.324a.857.857,0,0,0,.627.228.94.94,0,0,0,.855-.513.863.863,0,0,0-.114-.968l-5.868-7.406H88.953l-4.159,2.279a1.034,1.034,0,0,0-.513,1.082l.855,4.728a.921.921,0,0,0,.911.8h0a.944.944,0,0,0,.684-.285,1.051,1.051,0,0,0,.285-.684l-.171-3.589a1.163,1.163,0,0,1,.855-1.139l4.1-.911A.056.056,0,0,1,91.858,285.576Z" transform="translate(-80.521 -268.6)" fill="#56c596"/>
  <path id="Path_640" data-name="Path 640" d="M96.048,263.8a2.821,2.821,0,0,1-2.848-2.848,2.672,2.672,0,0,1,.855-1.994,2.9,2.9,0,0,1,1.994-.855,2.672,2.672,0,0,1,1.994.855,2.9,2.9,0,0,1,.855,1.994A2.857,2.857,0,0,1,96.048,263.8Zm0-4.9a2.023,2.023,0,0,0-1.424.57,1.978,1.978,0,0,0-.57,1.424,2.051,2.051,0,1,0,3.532-1.424,2.558,2.558,0,0,0-1.538-.57Z" transform="translate(-84.712 -258.1)" fill="#56c596"/>
  <path id="Path_641" data-name="Path 641" d="M102.677,300.4H81.6a.4.4,0,0,1,0-.8h21.078a.4.4,0,1,1,0,.8Z" transform="translate(-79.548 -275.958)" fill="#56c596"/>
</svg>
