<svg xmlns="http://www.w3.org/2000/svg" width="59.457" height="40.77" viewBox="0 0 59.457 40.77">
  <path id="Path_1498" data-name="Path 1498" d="M54.034,333.25c-1.208.094-2.528.192-3.882.338l-.358.014c-.239.007-.478.02-.478.02a2.815,2.815,0,0,1-2.25-.623,3.686,3.686,0,0,1-1-2.767V318.578c2.342.97,4.466,1.959,5.222,3.815a1.7,1.7,0,0,0,3.145-1.286c-1.36-3.331-4.725-4.712-7.691-5.927-.239-.1-.451-.192-.677-.285V300.25c.471-.669.71-.651,1.387-.523,9.011,1.665,15.6,17.71,15.6,25.427,0,7.407-1.553,7.525-9.025,8.1M26.39,333a2.775,2.775,0,0,1-2.236.623c-.007,0-.246-.013-.491-.02l-.272-.007c-1.44-.153-2.76-.251-3.968-.345-7.472-.571-9.025-.69-9.025-8.1,0-7.717,6.589-23.762,15.6-25.427a3.023,3.023,0,0,1,.531-.073c.325,0,.537.139.856.6V314.9c-.226.093-.438.187-.677.285-2.966,1.215-6.331,2.6-7.691,5.927a1.7,1.7,0,1,0,3.145,1.286c.756-1.857,2.88-2.845,5.222-3.815v11.653a3.686,3.686,0,0,1-1,2.767m21.692-36.617c-2.873-.525-4.214.955-5.156,2.475a1.685,1.685,0,0,0-.252.889v13.4a3.783,3.783,0,0,1-1.7-3.284,1.72,1.72,0,0,0-.053-.253,1.493,1.493,0,0,0,.053-.245V297.969a1.7,1.7,0,0,0-1.7-1.7h-5.1a1.7,1.7,0,0,0-1.7,1.7V309.86a3.783,3.783,0,0,1-1.7,3.284v-13.4a1.685,1.685,0,0,0-.252-.889c-.942-1.525-2.3-3-5.156-2.475C14.153,298.466,7,316.443,7,325.154c0,10.558,4.837,10.93,12.163,11.487,1.181.087,2.475.187,3.888.331.007,0,.246.014.491.02l.292.014c.239.02.478.034.717.034a5.954,5.954,0,0,0,4.121-1.534,6.978,6.978,0,0,0,2.11-5.275V317.085c2.681-1.352,5.1-3.343,5.1-7.225V299.668h1.7v9.695a1.475,1.475,0,0,0,.053.245,1.7,1.7,0,0,0-.053.253c0,3.882,2.415,5.873,5.1,7.225v13.147a6.978,6.978,0,0,0,2.11,5.275,5.958,5.958,0,0,0,4.094,1.534,5.8,5.8,0,0,0,.677-.034l.358-.014c.246-.007.484-.02.5-.02,1.407-.144,2.7-.245,3.882-.331,7.326-.557,12.163-.929,12.163-11.487,0-8.711-7.153-26.688-18.374-28.772" transform="translate(-7 -296.27)" fill="#cdb3d4"/>
</svg>
