<svg xmlns="http://www.w3.org/2000/svg" width="21.941" height="26.42" viewBox="0 0 21.941 26.42">
  <g id="chemistry" transform="translate(0 0)">
    <path id="Path_539" data-name="Path 539" d="M64.8,28.831a1.563,1.563,0,0,1-1.563-1.563V10h-.212a1.563,1.563,0,0,0-1.563,1.563V29.044a1.563,1.563,0,0,0,1.563,1.563H76.047a1.563,1.563,0,0,0,1.563-1.563v-.212Zm0,0" transform="translate(-58.402 -7.25)" fill="none"/>
    <path id="Path_540" data-name="Path 540" d="M13.037,76.169a1.563,1.563,0,0,1-1.563-1.563V57.059h-.212A1.563,1.563,0,0,0,9.7,58.622V76.381a1.563,1.563,0,0,0,1.563,1.563h13.3a1.563,1.563,0,0,0,1.563-1.563v-.212Zm0,0" transform="translate(-9.699 -51.524)" fill="none"/>
    <g id="Group_249" data-name="Group 249" transform="translate(1.584 0)">
      <path id="Path_541" data-name="Path 541" d="M16.278.182,16.271.175,16.259.164c-.01-.01-.02-.019-.031-.028L16.216.127,16.182.1l-.016-.01-.033-.02L16.108.059,16.082.047,16.037.03l-.01-.005A.394.394,0,0,0,15.911,0H5.2A2.181,2.181,0,0,0,3.018,2.154v.626H2.137A2.145,2.145,0,0,0,0,4.934V22.7a2.142,2.142,0,0,0,2.129,2.155H15.435a2.145,2.145,0,0,0,2.14-2.149v-.928h.644a2.13,2.13,0,0,0,2.137-2.124V4.7a.583.583,0,0,0-.155-.409Zm.172,1.883L18.4,4.083H16.45ZM16.391,22.7a.96.96,0,0,1-.949.971H2.137a.957.957,0,0,1-.954-.961V4.939a.961.961,0,0,1,.946-.975h.889V19.635A2.169,2.169,0,0,0,5.2,21.776H16.391Zm1.828-2.106H5.2a.985.985,0,0,1-1-.957V2.154a1,1,0,0,1,1-.971H15.267V4.7a.561.561,0,0,0,.583.563h3.322V19.635a.945.945,0,0,1-.933.957h-.02Zm0,0" transform="translate(0 0)" fill="#cde0c9"/>
      <path id="Path_543" data-name="Path 543" d="M238.609,213.978a.592.592,0,0,0-.837,0l-1.084,1.084a2.125,2.125,0,1,0,3,0Zm.247,3.252a.941.941,0,0,1-1.332-1.331l.666-.666.666.666A.941.941,0,0,1,238.856,217.23Zm0,0" transform="translate(-223.175 -198.994)" fill="#cde0c9"/>
      <path id="Path_544" data-name="Path 544" d="M102.057,81.184h4.919a.592.592,0,0,0,0-1.184h-4.919a.592.592,0,0,0,0,1.184Zm0,0" transform="translate(-99.777 -75.266)" fill="#cde0c9"/>
      <path id="Path_545" data-name="Path 545" d="M106.384,130.592a.592.592,0,0,0-.592-.592h-3.736a.592.592,0,0,0,0,1.184h3.736A.592.592,0,0,0,106.384,130.592Zm0,0" transform="translate(-99.777 -122.307)" fill="#cde0c9"/>
    </g>
    <path id="Path_546" data-name="Path 546" d="M90.063,140.262a2.184,2.184,0,0,1-1.545-3.728l5.649-5.649a.464.464,0,0,0,.107-.165l.514-1.336a.592.592,0,0,1,.971-.206l3.2,3.2a.592.592,0,0,1-.206.97l-1.336.514a.474.474,0,0,0-.165.107l-5.649,5.649A2.169,2.169,0,0,1,90.063,140.262Zm5.5-9.6-.187.486a1.646,1.646,0,0,1-.375.577l-5.649,5.649a1,1,0,0,0,1.415,1.415l5.649-5.649a1.646,1.646,0,0,1,.577-.375l.486-.187Zm0,0" transform="translate(-80.015 -122.451)" fill="#cde0c9"/>
  </g>
</svg>
