<svg id="chemistry" xmlns="http://www.w3.org/2000/svg" width="18.702" height="22.52" viewBox="0 0 18.702 22.52">
  <path id="Path_539" data-name="Path 539" d="M64.31,26.052a1.332,1.332,0,0,1-1.332-1.332V10H62.8a1.332,1.332,0,0,0-1.332,1.332v14.9A1.332,1.332,0,0,0,62.8,27.565h11.1a1.332,1.332,0,0,0,1.332-1.332v-.181Zm0,0" transform="translate(-58.854 -7.656)" fill="none"/>
  <path id="Path_540" data-name="Path 540" d="M12.545,73.348a1.332,1.332,0,0,1-1.332-1.332V57.059h-.181A1.332,1.332,0,0,0,9.7,58.391V73.529a1.332,1.332,0,0,0,1.332,1.332H22.366A1.332,1.332,0,0,0,23.7,73.529v-.181Zm0,0" transform="translate(-9.699 -52.341)" fill="none"/>
  <g id="Group_249" data-name="Group 249" transform="translate(1.35 0)">
    <path id="Path_541" data-name="Path 541" d="M13.875.155,13.869.149,13.859.14,13.833.116l-.01-.008L13.794.087,13.78.078,13.752.061,13.73.05,13.708.04,13.67.026l-.008,0a.336.336,0,0,0-.1-.022H4.432a1.859,1.859,0,0,0-1.86,1.837V2.37H1.821A1.829,1.829,0,0,0,0,4.206V19.348a1.826,1.826,0,0,0,1.815,1.837H13.156a1.828,1.828,0,0,0,1.824-1.832v-.791h.549a1.816,1.816,0,0,0,1.821-1.81V4.008a.5.5,0,0,0-.132-.349Zm.147,1.605L15.683,3.48H14.022Zm-.05,17.587a.818.818,0,0,1-.809.828H1.821a.816.816,0,0,1-.813-.819V4.21a.819.819,0,0,1,.806-.831h.758V16.737a1.849,1.849,0,0,0,1.86,1.825h9.539Zm1.558-1.795H4.432a.839.839,0,0,1-.851-.816V1.836a.849.849,0,0,1,.851-.828h8.581v3a.478.478,0,0,0,.5.48h2.832V16.737a.806.806,0,0,1-.8.816H15.53Zm0,0" transform="translate(0 0)" fill="#56c596"/>
    <path id="Path_543" data-name="Path 543" d="M238.233,213.952a.5.5,0,0,0-.713,0l-.924.924a1.811,1.811,0,1,0,2.561,0Zm.211,2.772a.8.8,0,0,1-1.135-1.135l.568-.568.567.567A.8.8,0,0,1,238.444,216.724Zm0,0" transform="translate(-225.078 -201.18)" fill="#56c596"/>
    <path id="Path_544" data-name="Path 544" d="M101.969,81.009h4.193a.5.5,0,1,0,0-1.009h-4.193a.5.5,0,0,0,0,1.009Zm0,0" transform="translate(-100.026 -75.965)" fill="#56c596"/>
    <path id="Path_545" data-name="Path 545" d="M105.658,130.5a.5.5,0,0,0-.5-.5h-3.184a.5.5,0,0,0,0,1.009h3.184A.5.5,0,0,0,105.658,130.5Zm0,0" transform="translate(-100.026 -123.443)" fill="#56c596"/>
  </g>
  <path id="Path_546" data-name="Path 546" d="M89.741,138.6a1.862,1.862,0,0,1-1.317-3.178l4.815-4.815a.4.4,0,0,0,.091-.14l.438-1.139a.5.5,0,0,1,.827-.176l2.73,2.73a.5.5,0,0,1-.176.827l-1.139.438a.4.4,0,0,0-.141.091l-4.815,4.815A1.849,1.849,0,0,1,89.741,138.6Zm4.691-8.185-.159.414a1.4,1.4,0,0,1-.32.492l-4.815,4.815a.853.853,0,0,0,1.206,1.206l4.815-4.815a1.4,1.4,0,0,1,.492-.319l.414-.159Zm0,0" transform="translate(-81.176 -123.418)" fill="#56c596"/>
</svg>
