<svg xmlns="http://www.w3.org/2000/svg" width="23.623" height="33.892" viewBox="0 0 23.623 33.892">
  <path id="Path_143" data-name="Path 143" d="M608.265,184.558a4.071,4.071,0,0,0,.979-2.747v-1.529a6.815,6.815,0,0,0,5.135,0v1.529a4.088,4.088,0,0,0,1.532,3.29,56.907,56.907,0,0,0-3.586,5.146,64.624,64.624,0,0,0-4.06-5.689m-2.856-12.028a18.658,18.658,0,0,0,8.537-4.746,9.708,9.708,0,0,0,1.81,2.472,1,1,0,0,0,.674.257,1.029,1.029,0,0,0,.69-1.79,9.9,9.9,0,0,1-1.8-2.728,9.987,9.987,0,0,0,.589-1.1,7.426,7.426,0,0,1,2.576,5.621c0,3.723-2.976,8.216-6.676,8.216-3.045,0-5.6-3.045-6.4-6.2m6.4-9.206a6.016,6.016,0,0,1,2.323.477c-1.9,4.546-7.8,6.355-8.995,6.68.016-3.883,3.065-7.156,6.672-7.156m11.678,26.2a14.447,14.447,0,0,0-5.56-5.54,2.285,2.285,0,0,1-1.5-2.17v-2.733a11.373,11.373,0,0,0,4.108-8.564c0-5.011-4-9.243-8.73-9.243s-8.73,4.232-8.73,9.243a11.376,11.376,0,0,0,4.108,8.564v2.733a2.279,2.279,0,0,1-1.5,2.17,14.447,14.447,0,0,0-5.56,5.54,1.031,1.031,0,0,0,.389,1.4,1.044,1.044,0,0,0,.505.132,1.02,1.02,0,0,0,.894-.522,12.518,12.518,0,0,1,4.706-4.726c2.247,2.54,4.573,5.461,4.67,8.365a1.4,1.4,0,0,0,.04.177,1.421,1.421,0,0,0,.044.18.984.984,0,0,0,.112.181,1.258,1.258,0,0,0,.1.145,1.053,1.053,0,0,0,.177.124.961.961,0,0,0,.145.1.874.874,0,0,0,.228.051.658.658,0,0,0,.149.037h.064a.608.608,0,0,0,.149-.037.873.873,0,0,0,.228-.051.959.959,0,0,0,.145-.1.909.909,0,0,0,.177-.124,1.259,1.259,0,0,0,.1-.145.987.987,0,0,0,.112-.181,1.442,1.442,0,0,0,.044-.18,1.4,1.4,0,0,0,.04-.177c.092-2.757,2.191-5.524,4.325-7.968a12.983,12.983,0,0,1,4.024,4.329,1.021,1.021,0,0,0,.895.522,1.044,1.044,0,0,0,.505-.132,1.027,1.027,0,0,0,.389-1.4" transform="translate(-600 -161.27)" fill="#68b2a0"/>
</svg>
