<svg xmlns="http://www.w3.org/2000/svg" width="19.151" height="16.04" viewBox="0 0 19.151 16.04">
  <g id="logout" transform="translate(-571.396 -1240.896)">
    <path id="Path_2989" d="M620.682,567.032H609.11a.214.214,0,0,1-.208-.215v-5.562a.215.215,0,0,1,.423,0v5.356h11.112v-14.7H609.323v5.674a.215.215,0,0,1-.423,0V551.7a.208.208,0,0,1,.208-.208h11.574a.2.2,0,0,1,.208.192v15.128a.208.208,0,0,1-.2.215h-.007Z" transform="translate(-30.593 689.654)" fill="none" stroke="#56c596" stroke-width="0.5"/>
    <path id="Path_1743" d="M327,815.6a.228.228,0,0,1-.112,0l-2.137-1.492a.208.208,0,0,1-.047-.287.178.178,0,0,1,.047-.047l2.134-1.492a.207.207,0,0,1,.285.049.2.2,0,0,1-.049.278h0l-1.87,1.329,1.87,1.329a.179.179,0,0,1-.121.334Z" transform="translate(247 434.986)" fill="none" stroke="#56c596" stroke-width="0.5"/>
    <path id="Path_2990" d="M361.133,874.521h-9.917a.237.237,0,0,1-.084-.467.256.256,0,0,1,.084,0h9.914a.238.238,0,0,1,.191.276A.233.233,0,0,1,361.133,874.521Z" transform="translate(221.347 374.628)" fill="none" stroke="#56c596" stroke-width="0.5"/>
  </g>
</svg>
