<svg xmlns="http://www.w3.org/2000/svg" width="30.951" height="26.529" viewBox="0 0 30.951 26.529">
  <path id="Path_109" data-name="Path 109" d="M673.455,189.031H670.8v-7.074a.884.884,0,0,0-.884-.884H659.306a.884.884,0,0,0-.884.884v7.074h-2.653V166.039h17.686Zm-7.959-6.19h3.537v6.19H665.5Zm-1.769,6.19H660.19v-6.19h3.537Zm20.339-17.686h-8.843v-6.19a.884.884,0,0,0-.884-.884H654.884a.883.883,0,0,0-.884.884v24.761a.884.884,0,0,0,.884.884h19.455a.884.884,0,0,0,.884-.884v-16.8h7.959v15.918h-3.537a.884.884,0,1,0,0,1.769h4.421a.884.884,0,0,0,.884-.884V172.229a.883.883,0,0,0-.884-.884" transform="translate(-654 -164.27)" fill="#68b2a0"/>
</svg>
