<svg xmlns="http://www.w3.org/2000/svg" width="25.169" height="30.76" viewBox="0 0 25.169 30.76">
  <path id="Path_134" data-name="Path 134" d="M669.131,40.494l8.506,12.759-.219.444a.917.917,0,0,0,.088.954c.015.025.019.055.033.08a1.4,1.4,0,0,1-2.275,1.624.287.287,0,0,0-.051-.044.786.786,0,0,0-.138-.127.808.808,0,0,0-.143-.095.7.7,0,0,0-.167-.058.773.773,0,0,0-.183-.036.348.348,0,0,0-.065-.015h-.9l-8.528-12.792Zm17.037,22.944a.931.931,0,0,0-.932-.932H670.322a.932.932,0,0,0,0,1.864h.779l-1.22,2.5a12.1,12.1,0,0,1-3.939-19.044l6.4,9.6a.934.934,0,0,0,.775.415h1.009a3.25,3.25,0,0,0,5.182-3.765l.237-.481a.93.93,0,0,0-.059-.932l-9.322-13.983a.935.935,0,0,0-1.293-.258l-5.593,3.729a.932.932,0,0,0-.258,1.293l1.853,2.782a14,14,0,0,0,5.087,22.729c.015.007.03,0,.04.011a.966.966,0,0,0,.321.062h6.525a.932.932,0,1,0,0-1.864h-5.036l1.362-2.8h8.636l1.628,4.075a.937.937,0,0,0,.867.586.953.953,0,0,0,.346-.066.937.937,0,0,0,.521-1.213l-1.354-3.383h1.42a.929.929,0,0,0,.932-.932" transform="translate(-661 -38.271)" fill="#68b2a0"/>
</svg>
