<svg xmlns="http://www.w3.org/2000/svg" width="16" height="19.171" viewBox="0 0 16 19.171">
  <path id="school-bell" d="M74.7,40.978a1.073,1.073,0,0,0-.261-.711.974.974,0,0,0-.13-.109,2.214,2.214,0,0,1-.7-.777,11.018,11.018,0,0,1-1.139-5.093A5.549,5.549,0,0,0,70.9,30.514a5.379,5.379,0,0,0-2.627-1.536,1.637,1.637,0,1,0-2.151,0A5.378,5.378,0,0,0,63.5,30.515a5.552,5.552,0,0,0-1.565,3.774,10.479,10.479,0,0,1-1.248,5.258,1.982,1.982,0,0,1-.576.616.921.921,0,0,0-.117.1,1.023,1.023,0,0,0-.292.717A1.01,1.01,0,0,0,60.7,42h4.716a2,2,0,0,0-.052.444,1.838,1.838,0,1,0,3.676,0A2,2,0,0,0,68.986,42H73.7A1.01,1.01,0,0,0,74.7,40.978ZM67.2,26.634a1.108,1.108,0,1,1-1.1,1.108,1.108,1.108,0,0,1,1.1-1.108ZM60.235,40.978a.49.49,0,0,1,.136-.339.388.388,0,0,1,.049-.041,2.512,2.512,0,0,0,.728-.783,11.019,11.019,0,0,0,1.32-5.526,5.012,5.012,0,0,1,1.417-3.4,4.416,4.416,0,0,1,6.63,0,5.01,5.01,0,0,1,1.417,3.4,11.56,11.56,0,0,0,1.2,5.341,2.742,2.742,0,0,0,.87.966.437.437,0,0,1,.059.049.57.57,0,0,1,.1.334.481.481,0,0,1-.463.484h-13A.481.481,0,0,1,60.235,40.978Zm8.268,1.46A1.3,1.3,0,1,1,65.971,42h2.458a1.281,1.281,0,0,1,.074.441Z" transform="translate(-59.2 -25.607)" fill="none" stroke="#fff9f9" stroke-width="1"/>
</svg>
