<svg xmlns="http://www.w3.org/2000/svg" width="25.648" height="26.5" viewBox="0 0 25.648 26.5"><defs><style>.a{fill:#ffbe88;}</style></defs><g transform="translate(-159.539 -85.168)"><path class="a" d="M174.92,108.383a15.586,15.586,0,0,1,3.758-3.336,9.065,9.065,0,0,0,1.839-1.492,1.074,1.074,0,0,0,.278-.6.426.426,0,0,0-.17-.344.637.637,0,0,0-.484-.168.672.672,0,0,0-.5.168,1.635,1.635,0,0,0-.333.955l-.115.779-3.758-.285a5.936,5.936,0,0,1-4.4,1.8,6,6,0,0,1-4.709-2.1q-1.856-2.112-1.855-6.185,0-4.148,1.8-6.21a6.536,6.536,0,0,1,9.489-.025q1.787,2.037,1.784,6.168c0,.427-.018.838-.046,1.232a10.054,10.054,0,0,1,2.549-.277,11.538,11.538,0,0,1,2.395.218c.018-.352.034-.7.034-1.064q0-5.858-3.129-9.16a11.023,11.023,0,0,0-8.366-3.294,12.738,12.738,0,0,0-5.095.955,9.163,9.163,0,0,0-3.058,2.162,11.387,11.387,0,0,0-2.2,3.294,15.347,15.347,0,0,0-1.086,6.16q0,5.733,3.113,9.01a11.039,11.039,0,0,0,8.385,3.268,13.613,13.613,0,0,0,3.166-.36,7.9,7.9,0,0,1,.716-1.274" transform="translate(0 0)"/><path class="a" d="M176.2,104.119H166.07a6.429,6.429,0,0,1,1.058-2.824,14.243,14.243,0,0,1,3.308-3.118,10.185,10.185,0,0,0,1.9-1.676,1.885,1.885,0,0,0,.412-1.09,1.252,1.252,0,0,0-.412-.947,1.422,1.422,0,0,0-1.03-.394,1.451,1.451,0,0,0-1.056.4,2.552,2.552,0,0,0-.554,1.442l-3.377-.277a5.225,5.225,0,0,1,.727-2.229,3.436,3.436,0,0,1,1.493-1.224,6.761,6.761,0,0,1,2.673-.427,7.622,7.622,0,0,1,2.774.4,3.389,3.389,0,0,1,1.558,1.249,3.316,3.316,0,0,1,.571,1.894,3.866,3.866,0,0,1-.654,2.12,8.876,8.876,0,0,1-2.362,2.221c-.68.469-1.141.8-1.367.989a10.5,10.5,0,0,0-.8.738H176.2" transform="translate(8.984 7.549)"/></g></svg>