<svg id="Group_1716" data-name="Group 1716" xmlns="http://www.w3.org/2000/svg" width="22.721" height="25.091" viewBox="0 0 22.721 25.091">
  <ellipse id="Ellipse_19" data-name="Ellipse 19" cx="2.955" cy="2.955" rx="2.955" ry="2.955" transform="translate(4.376 0)" fill="#56c596"/>
  <ellipse id="Ellipse_20" data-name="Ellipse 20" cx="2.955" cy="2.955" rx="2.955" ry="2.955" transform="translate(11.746 0)" fill="#56c596"/>
  <path id="Path_1508" data-name="Path 1508" d="M598.945,107.647l-4.751-6.111a.9.9,0,0,0-.672-.336H580.444a.794.794,0,0,0-.722.453l-3.173,6.464a1.1,1.1,0,0,0,1.964.991l2.2-4.315.47,4.181-.99,8.781a1.42,1.42,0,0,0,2.82.336l.839-5.49.873,5.49a1.417,1.417,0,0,0,1.41,1.242h0c.856,0,2.938.017,3.509,0a1.018,1.018,0,0,0,.991-.94l.554-6.027.571,6.027a1,1,0,0,0,1.007.907h0a1,1,0,0,0,.99-1.024l-.218-6.565h2.1l-1.511-6.531,3.358,3.878a1.018,1.018,0,0,0,1.309.067h0A1.115,1.115,0,0,0,598.945,107.647Z" transform="translate(-576.437 -94.249)" fill="#56c596"/>
</svg>
