<svg xmlns="http://www.w3.org/2000/svg" width="25.942" height="22.21" viewBox="0 0 25.942 22.21">
  <g id="edit_icon" data-name="edit icon" transform="translate(-318.6 -148.7)">
    <path id="Path_2968" data-name="Path 2968" d="M325.529,180.965a.76.76,0,0,1-.592-.237.827.827,0,0,1-.178-.888l2.191-6.16a.713.713,0,0,1,.3-.3.393.393,0,0,1,.415.118l4.561,4.561a.366.366,0,0,1,.118.415.487.487,0,0,1-.3.3l-6.16,2.191Zm2.014-6.4-1.955,5.567,5.567-1.955Z" transform="translate(-2.487 -10.055)"/>
    <path id="Path_2969" data-name="Path 2969" d="M337.265,174.88a.452.452,0,0,1-.3-.118l-4.561-4.561a.419.419,0,0,1,.592-.592l4.561,4.561a.4.4,0,0,1,0,.592A.453.453,0,0,1,337.265,174.88Z" transform="translate(-5.576 -8.47)"/>
    <path id="Path_2970" data-name="Path 2970" d="M354.427,157.116a1.618,1.618,0,0,1-1.125-.474l-4.027-4.027a1.573,1.573,0,0,1,0-2.251,1.54,1.54,0,0,1,2.251,0l4.027,4.027a1.54,1.54,0,0,1,0,2.251A1.4,1.4,0,0,1,354.427,157.116Zm-4.087-6.337a.724.724,0,0,0-.533.237.751.751,0,0,0-.237.533.643.643,0,0,0,.237.533l4.027,4.027a.754.754,0,0,0,1.066-1.066l-4.027-4.027A.577.577,0,0,0,350.34,150.778Z" transform="translate(-12.313 -0.479)"/>
    <path id="Path_2971" data-name="Path 2971" d="M356.616,154.978h-.059a.394.394,0,0,1-.3-.237c-.059-.059-.059-.118-.118-.178l-4.027-4.027c-.059-.059-.118-.059-.178-.118a.591.591,0,0,1-.237-.3c0-.118,0-.3.118-.355a3.644,3.644,0,0,1,5.153,5.153C356.853,154.919,356.734,154.978,356.616,154.978Zm-3.85-5.034,3.85,3.85a2.785,2.785,0,0,0-.3-3.554A2.861,2.861,0,0,0,352.766,149.944Z" transform="translate(-13.496 0)"/>
    <path id="Path_2972" data-name="Path 2972" d="M333.365,170.431a.453.453,0,0,1-.3-.118l-4.561-4.561a.4.4,0,0,1,0-.592l12.142-12.142a.435.435,0,0,1,.355-.118.394.394,0,0,1,.3.237c.059.059.059.118.118.178l4.027,4.027c.059.059.118.059.178.118a.591.591,0,0,1,.237.3c0,.118,0,.3-.118.355L333.6,170.254C333.6,170.372,333.483,170.431,333.365,170.431Zm-3.909-4.975,3.909,3.909,11.49-11.49-3.909-3.909Z" transform="translate(-3.985 -1.712)"/>
    <path id="Path_2973" data-name="Path 2973" d="M342.765,185.629h-23.75a.415.415,0,1,1,0-.829h23.75a.415.415,0,0,1,0,.829Z" transform="translate(0 -14.719)"/>
    <path id="Path_2974" data-name="Path 2974" d="M327.711,181.426a.453.453,0,0,1-.3-.118l-1.007-1.007a.419.419,0,0,1,.592-.592l1.007,1.007a.4.4,0,0,1,0,.592A.453.453,0,0,1,327.711,181.426Z" transform="translate(-3.129 -12.588)"/>
  </g>
</svg>
