<svg xmlns="http://www.w3.org/2000/svg" width="19.517" height="34.786" viewBox="0 0 19.517 34.786">
  <path id="Path_3055" data-name="Path 3055" d="M494.969,189.966a.848.848,0,1,1,.848-.848.85.85,0,0,1-.848.848m-13.572-17a6.192,6.192,0,0,1,.07-1.16,8.981,8.981,0,0,0,2.472,3.171v2.258a1.959,1.959,0,0,1-.092.606,13.161,13.161,0,0,1-.909-1.1,7.181,7.181,0,0,1-1.541-3.778m6.36-11a4.97,4.97,0,0,1,1.919.394c-1.571,3.755-6.443,5.25-7.431,5.518a5.811,5.811,0,0,1,5.511-5.912m5.515,5.939c0,3.076-2.459,6.788-5.515,6.788-2.516,0-4.623-2.516-5.289-5.121a15.449,15.449,0,0,0,7.052-3.921,8.022,8.022,0,0,0,1.495,2.042.83.83,0,0,0,.557.212.85.85,0,0,0,.57-1.479,8.174,8.174,0,0,1-1.485-2.253,8.256,8.256,0,0,0,.487-.911,6.135,6.135,0,0,1,2.128,4.644m.845,5.064a7.2,7.2,0,0,1-1.537,3.778c-.239.332-.547.723-.885,1.15a1.88,1.88,0,0,1-.12-.659v-2.258a8.934,8.934,0,0,0,2.469-3.171,5.916,5.916,0,0,1,.073,1.16m-8.481,4.269v-1.263a5.629,5.629,0,0,0,4.242,0v1.263a3.405,3.405,0,0,0,.683,2.108,19.961,19.961,0,0,0-2.449,4.01,20.725,20.725,0,0,0-3.046-4.159,3.423,3.423,0,0,0,.57-1.958m11.878,11.878a2.545,2.545,0,1,0-3.493,2.36,2.539,2.539,0,0,1-4.991-.663v-4.223c.08-2.168,1.465-4.341,2.834-6.155.059.033.113.07.172.1a10.325,10.325,0,0,1,3.891,3.9.851.851,0,0,0,.739.431.862.862,0,0,0,.417-.109.849.849,0,0,0,.322-1.157,12.03,12.03,0,0,0-4.491-4.52.007.007,0,0,0,.007-.007c.4-.51.765-.964,1.041-1.352a8.84,8.84,0,0,0,1.852-4.706,6.606,6.606,0,0,0-.954-3.835,8.453,8.453,0,0,0,.109-1.282,7.224,7.224,0,1,0-14.424,0,8.457,8.457,0,0,0,.109,1.282,6.606,6.606,0,0,0-.954,3.835,8.835,8.835,0,0,0,1.853,4.706,16.143,16.143,0,0,0,1.1,1.329,12,12,0,0,0-4.543,4.55.849.849,0,0,0,.322,1.157.862.862,0,0,0,.417.109.85.85,0,0,0,.739-.431,10.325,10.325,0,0,1,3.891-3.9c.12-.063.229-.129.338-.2,1.615,1.806,3.437,4.073,3.517,6.247v4.223a4.236,4.236,0,0,0,8.411.715,2.541,2.541,0,0,0,1.77-2.412" transform="translate(-477.998 -160.27)" fill="#68b2a0"/>
</svg>
