<svg xmlns="http://www.w3.org/2000/svg" width="14.401" height="14.4" viewBox="0 0 14.401 14.4">
  <path id="Path_3175" data-name="Path 3175" d="M424.982,332.594a5.982,5.982,0,1,0,4.256,1.758,5.988,5.988,0,0,0-4.256-1.758Zm-1.965,8.617h0a.606.606,0,0,1-.228-.043.383.383,0,0,1-.2-.122.546.546,0,0,1-.175-.422.491.491,0,0,1,.175-.392l1.586-1.6-1.663-1.648a.63.63,0,0,1-.167-.4.588.588,0,0,1,.613-.612.579.579,0,0,1,.4.177l1.654,1.649,1.659-1.66a.552.552,0,0,1,.411-.165.585.585,0,0,1,.6.587.583.583,0,0,1-.178.409l-1.666,1.662,1.6,1.6a.588.588,0,0,1,.177.409.623.623,0,0,1-.177.424.389.389,0,0,1-.18.121.866.866,0,0,1-.244.039.619.619,0,0,1-.22-.039.269.269,0,0,1-.19-.121l-1.593-1.586-1.587,1.568a.256.256,0,0,1-.2.122.471.471,0,0,1-.207.043Zm1.965,4.595h0a7.221,7.221,0,0,1-7.2-7.2,7.221,7.221,0,0,1,7.2-7.2,7.2,7.2,0,0,1,0,14.4Z" transform="translate(-417.781 -331.407)" fill="#fff" fill-rule="evenodd"/>
</svg>
