<svg id="Group_1715" data-name="Group 1715" xmlns="http://www.w3.org/2000/svg" width="26.348" height="34.944" viewBox="0 0 26.348 34.944">
  <path id="Path_999" data-name="Path 999" d="M1729.778,2072.83l1.251-.253.325,3.4a.407.407,0,0,0,.367.366l.038,0a.407.407,0,0,0,.39-.294l1.767-6.107a.407.407,0,0,0-.552-.487l-1.235.532-.345-2.9a.407.407,0,0,0-.792-.075l-1.684,5.3a.407.407,0,0,0,.468.522Zm1.421-3.781.187,1.577a.407.407,0,0,0,.565.326l.945-.406-.935,3.23-.165-1.726a.407.407,0,0,0-.485-.36l-1.016.206Z" transform="translate(-1718.438 -2066.726)" fill="#56c596"/>
  <path id="Path_1000" data-name="Path 1000" d="M1833.218,2152.837a.406.406,0,0,0,.51-.023l1.941-1.714.49,1.054a.407.407,0,0,0,.736,0l2.487-5.177a.407.407,0,0,0-.643-.475l-2.234,2.065-.664-.889a.407.407,0,0,0-.7.077l-2.056,4.583A.406.406,0,0,0,1833.218,2152.837Zm2.906-3.417a.407.407,0,0,0,.6.055l1-.924-1.191,2.479-.356-.767a.406.406,0,0,0-.286-.227.4.4,0,0,0-.083-.009.408.408,0,0,0-.269.1l-.94.83,1-2.236Z" transform="translate(-1815.706 -2141.412)" fill="#56c596"/>
  <path id="Path_1001" data-name="Path 1001" d="M1600.439,2152.159a.407.407,0,0,0,.736,0l.49-1.054,1.942,1.714a.407.407,0,0,0,.64-.471l-2.056-4.584a.407.407,0,0,0-.7-.077l-.664.889-2.234-2.065a.407.407,0,0,0-.643.475Zm.168-2.683a.407.407,0,0,0,.6-.055l.521-.7,1,2.236-.94-.829a.407.407,0,0,0-.638.134l-.356.767-1.191-2.479Z" transform="translate(-1595.281 -2141.413)" fill="#56c596"/>
  <path id="Path_1002" data-name="Path 1002" d="M1581.976,2238.87l-4.694-10.413a2.282,2.282,0,0,0-3.021-1.144,2.331,2.331,0,0,0-.312.171,5.58,5.58,0,0,0-1.013-1.474,5.42,5.42,0,0,0-7.785,0,5.579,5.579,0,0,0-1.013,1.474,2.307,2.307,0,0,0-.312-.171,2.265,2.265,0,0,0-.937-.2,2.289,2.289,0,0,0-2.083,1.346l-4.694,10.412a2.711,2.711,0,0,0,4.175,3.224l2.779-1.779-.014,8.719a.408.408,0,0,0,.407.408h10.862a.407.407,0,0,0,.406-.4l.218-8.788,2.856,1.837a2.72,2.72,0,0,0,1.7.6h0a2.711,2.711,0,0,0,2.471-3.825Zm-1.319,2.621a1.881,1.881,0,0,1-1.152.39h0a1.9,1.9,0,0,1-1.206-.432.439.439,0,0,0-.038-.028l-3.484-2.241a.407.407,0,0,0-.627.332l-.226,9.115h-10.058l.014-9.056a.407.407,0,0,0-.626-.343l-3.426,2.193a.375.375,0,0,0-.039.029,1.9,1.9,0,0,1-1.206.432,1.9,1.9,0,0,1-1.73-2.677l4.694-10.413a1.469,1.469,0,0,1,2.285-.522,1.457,1.457,0,0,1,.316.371,1.49,1.49,0,0,1,.115.235,1.461,1.461,0,0,1-.035,1.125l-.258.573-.311.69-1.06,2.352h0l-1.952,4.33.742.334,1.4-3.11.61-.5,1.06-.38h.809l.1.1.084.086.062.061.128.122.017.016q.083.077.169.151l.007.006a5.609,5.609,0,0,0,2.853,1.385h0c.057.007.113.011.168.015h.025c.054,0,.108,0,.161,0s.093,0,.14,0l.049,0,.092-.007c.047,0,.095-.01.142-.016l.016,0a5.267,5.267,0,0,0,2.335-1.026l.056-.043.056-.042.115-.089.091-.074.061-.051c.045-.038.09-.076.134-.116l.021-.019.132-.121.026-.025q.159-.151.307-.311h.81l1.06.38.61.5,1.4,3.11.742-.335-1.441-3.2h0l-1.571-3.486-.311-.69-.258-.572a1.462,1.462,0,0,1-.035-1.125,1.5,1.5,0,0,1,.115-.236,1.47,1.47,0,0,1,1.26-.715,1.474,1.474,0,0,1,1.342.867l4.694,10.413A1.889,1.889,0,0,1,1580.656,2241.491Zm-7.329-13.405a2.291,2.291,0,0,0-.21,2.249l.456,1.011a5.11,5.11,0,0,1-.3.823c-.019.041-.039.082-.059.123a5.873,5.873,0,0,1-.771,1.183q-.179.213-.372.407-.216.216-.445.407a4.592,4.592,0,0,1-2.455,1.132h-.01c-.041,0-.082,0-.121,0s-.089,0-.134,0h-.024c-.043,0-.087-.007-.131-.012l-.028,0c-.045-.006-.09-.013-.135-.021l-.015,0c-.043-.008-.085-.017-.128-.027l-.028-.006-.135-.035-.034-.01-.138-.043-.022-.008q-.066-.022-.132-.048l-.023-.009-.144-.059-.027-.012c-.05-.022-.1-.044-.149-.068l-.012-.006q-.16-.078-.321-.17l-.007,0a5.945,5.945,0,0,1-.83-.585c-.151-.127-.3-.263-.441-.407q-.191-.194-.367-.407a6,6,0,0,1-.658-.966h0q-.1-.188-.19-.384l0-.01c-.027-.059-.052-.119-.076-.18l-.014-.036c-.023-.058-.045-.117-.065-.176l-.012-.037-.011-.035c-.014-.041-.027-.083-.04-.124-.018-.06-.035-.12-.051-.18l.456-1.011a2.291,2.291,0,0,0-.21-2.249,4.608,4.608,0,0,1,8.568,0Zm-8.711,5.388h-.227a.412.412,0,0,0-.137.024l-.844.3.622-1.379A6.347,6.347,0,0,0,1564.616,2233.474Zm9.441-1.053.622,1.38-.845-.3a.4.4,0,0,0-.137-.024h-.227A6.375,6.375,0,0,0,1574.057,2232.421Z" transform="translate(-1555.87 -2214.497)" fill="#56c596"/>
</svg>
