<svg id="gear" xmlns="http://www.w3.org/2000/svg" width="19.381" height="19" viewBox="0 0 19.381 19">
  <g id="Group_84" data-name="Group 84" transform="translate(0.485 0.485)">
    <path id="Path_155" data-name="Path 155" d="M13.194,57.941l1.283-1.512a7.09,7.09,0,0,1-1.026-2.423l-2-.181V51.179l2-.181a7.09,7.09,0,0,1,1.026-2.423l-1.283-1.512,1.252-1.226-.794-.646-1.911,1.872,1.283,1.512A7.09,7.09,0,0,0,12,51l-2,.181v2.647l2,.181a7.09,7.09,0,0,0,1.026,2.423l-1.283,1.512,1.911,1.872.794-.646Zm0,0" transform="translate(-10 -43.487)" fill="none"/>
    <path id="Path_156" data-name="Path 156" d="M295.678,46.444l.75-.611-.66-.646-.96.781A7.412,7.412,0,0,1,295.678,46.444Zm0,0" transform="translate(-281.01 -43.483)" fill="none"/>
    <path id="Path_157" data-name="Path 157" d="M135.775,12.965a7.408,7.408,0,0,1,2.474-1L138.433,10H136.98L136.8,11.96a7.4,7.4,0,0,0-1.6.53Zm0,0" transform="translate(-129.126 -10.004)" fill="none"/>
    <path id="Path_158" data-name="Path 158" d="M295.678,321.039a7.4,7.4,0,0,1-.87.475l.96.782.66-.646Zm0,0" transform="translate(-281.01 -305.969)" fill="none"/>
    <path id="Path_159" data-name="Path 159" d="M135.775,321.039l-.584.475a7.409,7.409,0,0,0,1.6.53L136.98,324h1.454l-.184-1.956A7.408,7.408,0,0,1,135.775,321.039Zm0,0" transform="translate(-129.126 -305.969)" fill="none"/>
  </g>
  <path id="Path_160" data-name="Path 160" d="M144.773,144.559a2.764,2.764,0,1,1,2.812-2.764A2.792,2.792,0,0,1,144.773,144.559Zm0-4.559a1.8,1.8,0,1,0,1.843,1.795A1.822,1.822,0,0,0,144.773,140Zm0,0" transform="translate(-135.083 -132.295)" fill="#56c596"/>
  <path id="Path_161" data-name="Path 161" d="M11.041,19h-2.7a.485.485,0,0,1-.482-.439L7.7,16.953a7.854,7.854,0,0,1-1.983-.807L4.443,17.187a.485.485,0,0,1-.645-.03L1.886,15.285a.484.484,0,0,1-.03-.66l1.053-1.241a7.543,7.543,0,0,1-.816-1.929L.441,11.306A.485.485,0,0,1,0,10.824V8.177a.485.485,0,0,1,.441-.483l1.652-.149a7.543,7.543,0,0,1,.816-1.929L1.855,4.375a.484.484,0,0,1,.03-.66L3.8,1.843a.485.485,0,0,1,.645-.03L5.721,2.854A7.859,7.859,0,0,1,7.7,2.048L7.856.439A.485.485,0,0,1,8.338,0h2.7a.485.485,0,0,1,.482.439l.151,1.609a7.86,7.86,0,0,1,1.983.807l1.279-1.041a.485.485,0,0,1,.645.03l1.911,1.872a.485.485,0,0,1,.03.66L16.471,5.616a7.544,7.544,0,0,1,.816,1.929l1.652.149a.485.485,0,0,1,.441.482v2.647a.485.485,0,0,1-.441.483l-1.652.149a7.543,7.543,0,0,1-.816,1.929l1.053,1.241a.484.484,0,0,1-.03.66l-1.911,1.872a.485.485,0,0,1-.645.03l-1.279-1.041a7.86,7.86,0,0,1-1.983.807l-.151,1.609a.485.485,0,0,1-.482.439Zm-2.262-.969H10.6l.143-1.517a.485.485,0,0,1,.384-.429,6.91,6.91,0,0,0,2.312-.939.484.484,0,0,1,.566.033l1.208.984,1.28-1.253L15.5,13.741a.484.484,0,0,1-.034-.581,6.591,6.591,0,0,0,.956-2.257.485.485,0,0,1,.43-.38l1.557-.14V8.619l-1.557-.141a.484.484,0,0,1-.43-.38,6.588,6.588,0,0,0-.956-2.257A.485.485,0,0,1,15.5,5.26l.991-1.168-1.28-1.253-1.208.984a.484.484,0,0,1-.566.033,6.908,6.908,0,0,0-2.312-.939.485.485,0,0,1-.384-.429L10.6.969H8.779L8.636,2.486a.485.485,0,0,1-.384.429,6.908,6.908,0,0,0-2.312.939.484.484,0,0,1-.566-.033L4.166,2.838,2.886,4.092,3.877,5.26a.484.484,0,0,1,.034.581A6.593,6.593,0,0,0,2.955,8.1a.484.484,0,0,1-.43.38L.969,8.619v1.762l1.557.14a.484.484,0,0,1,.43.38,6.6,6.6,0,0,0,.956,2.257.484.484,0,0,1-.034.581l-.991,1.168,1.28,1.253,1.208-.984a.485.485,0,0,1,.566-.033,6.9,6.9,0,0,0,2.312.939.485.485,0,0,1,.384.429Zm0,0" transform="translate(0 0)" fill="#56c596"/>
</svg>
