<svg id="Group_1721" data-name="Group 1721" xmlns="http://www.w3.org/2000/svg" width="22.626" height="22.623" viewBox="0 0 22.626 22.623">
  <path id="Path_3056" data-name="Path 3056" d="M52.5,347.5h3.612a.642.642,0,0,0,.642-.642v-3.612a.642.642,0,0,0-.642-.642H52.5a.642.642,0,0,0-.642.642v3.612A.642.642,0,0,0,52.5,347.5Z" transform="translate(-49.53 -327.205)" fill="#56c596"/>
  <path id="Path_3057" data-name="Path 3057" d="M56.115,51.9H52.5a.642.642,0,0,0-.642.642v3.612a.642.642,0,0,0,.642.642h3.612a.642.642,0,0,0,.642-.642V52.543A.643.643,0,0,0,56.115,51.9Z" transform="translate(-49.53 -49.57)" fill="#56c596"/>
  <path id="Path_3058" data-name="Path 3058" d="M346.815,51.9H343.2a.642.642,0,0,0-.642.642v3.612a.642.642,0,0,0,.642.642h3.612a.642.642,0,0,0,.642-.642V52.543A.642.642,0,0,0,346.815,51.9Z" transform="translate(-327.165 -49.57)" fill="#56c596"/>
  <path id="Path_3059" data-name="Path 3059" d="M18.765,9.6h3.163a.7.7,0,0,0,.7-.7V.735a.7.7,0,0,0-.7-.7H13.76a.691.691,0,0,0-.525.244H10.524V3.86H9.558V.735a.7.7,0,0,0-.7-.7H.7a.7.7,0,0,0-.7.7V8.9a.7.7,0,0,0,.7.7h4.2v3.507H.7a.7.7,0,0,0-.7.7v8.168a.7.7,0,0,0,.7.7H8.863a.7.7,0,0,0,.7-.7V18.736h1.1V20.93h4.669V18.736h1.234V22.3H21.23V17.636H18.9v-.894h3.731V12.074H18.765ZM14.44,1.415h6.808V8.223H14.44ZM13.065,8.3h-.9V4.953h.9ZM1.375,8.223V1.415H8.183V8.223ZM8.183,21.288H1.375V14.48H8.183Zm1.375-7.22V13.8s0-.007,0-.011h0V9.12H9.52A.694.694,0,0,0,9.558,8.9V8.529h1.513v4.439H14.1v1.1Z" transform="translate(0 -0.04)" fill="#56c596"/>
</svg>
