<svg xmlns="http://www.w3.org/2000/svg" width="16.025" height="25.06" viewBox="0 0 16.025 25.06">
  <path id="Path_3078" data-name="Path 3078" d="M422.922,724.138v-4.045a7.512,7.512,0,1,1,15.025,0v4.045a9.071,9.071,0,0,0-2.993-2.842v-1.2a4.511,4.511,0,1,0-9.023,0v1.2a9.014,9.014,0,0,0-3.009,2.842Zm15.025,4.96h0a7.512,7.512,0,1,1-7.508-7.511,7.51,7.51,0,0,1,7.508,7.511Zm-6-1.5h0a1.505,1.505,0,1,0-3.01,0,1.47,1.47,0,0,0,.759,1.269v2.484a.746.746,0,0,0,.742.757.767.767,0,0,0,.761-.757v-2.484a1.478,1.478,0,0,0,.749-1.269Z" transform="translate(-422.422 -712.061)" fill="none" stroke="#56c596" stroke-width="1"/>
</svg>
