<svg id="Smartphone_Outlined" xmlns="http://www.w3.org/2000/svg" width="30.828" height="49.315" viewBox="0 0 30.828 49.315">
  <path id="Path_1559" data-name="Path 1559" d="M255.78,31.82H235.028a5.04,5.04,0,0,0-5.038,5.038V76.1a5.04,5.04,0,0,0,5.038,5.038H255.78a5.04,5.04,0,0,0,5.038-5.038V36.858A5.04,5.04,0,0,0,255.78,31.82ZM235.043,34.9H255.8a1.959,1.959,0,0,1,1.957,1.957v1.125H233.1V36.858A1.936,1.936,0,0,1,235.043,34.9Zm22.693,6.162v26.19h-24.65V41.064ZM255.78,78.038H235.028a1.959,1.959,0,0,1-1.957-1.957V70.335h24.65v5.746A1.936,1.936,0,0,1,255.78,78.038Z" transform="translate(-229.99 -31.82)" fill="#707070"/>
  <circle id="Ellipse_44" data-name="Ellipse 44" cx="2.311" cy="2.311" r="2.311" transform="translate(13.111 40.056)" fill="#707070"/>
</svg>
