<svg id="user_2_" data-name="user (2)" xmlns="http://www.w3.org/2000/svg" width="20.234" height="20.969" viewBox="0 0 20.234 20.969">
  <g id="Group_248" data-name="Group 248" transform="translate(0.441 0.44)">
    <path id="Path_530" data-name="Path 530" d="M412.983,357.2H412.1a.778.778,0,0,1,.776.78v1.036a.777.777,0,0,1-.776.776h.881a.777.777,0,0,0,.776-.776v-1.036A.778.778,0,0,0,412.983,357.2Zm0,0" transform="translate(-394.398 -341.897)" fill="#d4e1f4"/>
    <path id="Path_531" data-name="Path 531" d="M250.677,359.015v-1.036a.778.778,0,0,1,.776-.78h-.877a.775.775,0,0,0-.776.78v1.036a.777.777,0,0,0,.776.776h.881a.778.778,0,0,1-.78-.776Zm0,0" transform="translate(-239.249 -341.897)" fill="#d4e1f4"/>
    <path id="Path_532" data-name="Path 532" d="M76.2,15.092a4.218,4.218,0,0,1,4.218-4.218c.137,0,.269.009.4.018a4.219,4.219,0,1,0-3.006,7.519A4.219,4.219,0,0,1,76.2,15.092Zm0,0" transform="translate(-71.194 -9.992)" fill="none"/>
    <path id="Path_533" data-name="Path 533" d="M19.622,246.079a7.131,7.131,0,0,1,1.481.154,6.952,6.952,0,0,0-3.684-1.036,7.063,7.063,0,0,0-7.016,7.325l2.248,0a7.014,7.014,0,0,1,6.972-6.439Zm0,0" transform="translate(-10.403 -234.831)" fill="none"/>
    <path id="Path_534" data-name="Path 534" d="M345.263,440.019v.114a.522.522,0,0,1-.525.52h-.815a.521.521,0,0,1-.52-.52v-.114a.521.521,0,0,1,.52-.52h.815a.517.517,0,0,1,.525.52Zm0,0" transform="translate(-328.727 -420.569)" fill="#d4e1f4"/>
  </g>
  <path id="Path_535" data-name="Path 535" d="M68.658,9.317A4.658,4.658,0,1,0,64,4.658,4.658,4.658,0,0,0,68.658,9.317Zm0-8.435a3.777,3.777,0,1,1-3.777,3.777A3.777,3.777,0,0,1,68.658.881Zm0,0" transform="translate(-61.197)" fill="#56c596"/>
  <path id="Path_536" data-name="Path 536" d="M7.872,235.2H7.854a7.315,7.315,0,0,0-5.28,2.217A7.844,7.844,0,0,0,.4,242.964a.454.454,0,0,0,.128.313.436.436,0,0,0,.313.128l10.754-.022a.441.441,0,1,0,0-.881l-10.3.022a6.914,6.914,0,0,1,1.913-4.491,6.427,6.427,0,0,1,4.65-1.948h.013a6.467,6.467,0,0,1,4.513,1.8.439.439,0,0,0,.608-.635A7.319,7.319,0,0,0,7.872,235.2Zm0,0" transform="translate(-0.401 -224.833)" fill="#56c596"/>
  <path id="Path_537" data-name="Path 537" d="M337.36,407a.442.442,0,0,0-.441.441v.635a.5.5,0,0,1-.5.5h-.362a.966.966,0,0,0-.881-.577h-.815a.963.963,0,0,0-.961.961v.115a.963.963,0,0,0,.961.961h.815a.954.954,0,0,0,.881-.582h.362a1.382,1.382,0,0,0,1.379-1.38v-.635a.436.436,0,0,0-.441-.436Zm-2.1,2.067a.08.08,0,0,1-.084.079h-.815a.079.079,0,0,1-.079-.079v-.114a.078.078,0,0,1,.023-.056.079.079,0,0,1,.056-.023h.815a.083.083,0,0,1,.084.079Zm0,0" transform="translate(-318.726 -389.062)" fill="#56c596"/>
  <path id="Path_538" data-name="Path 538" d="M248.134,243.578v-1.093a3.682,3.682,0,0,0-7.364,0v1.093a1.221,1.221,0,0,0-1.168,1.216v1.036a1.22,1.22,0,0,0,1.221,1.216h.908a.442.442,0,0,0,.441-.441V244.01a.442.442,0,0,0-.441-.441h-.079v-1.093a2.8,2.8,0,0,1,5.6,0v1.093h-.079a.442.442,0,0,0-.441.441V246.6a.442.442,0,0,0,.441.441h.908a1.219,1.219,0,0,0,1.216-1.216V244.79A1.209,1.209,0,0,0,248.134,243.578Zm-6.844,2.591h-.463a.339.339,0,0,1-.339-.335V244.8a.336.336,0,0,1,.339-.335h.467v1.706Zm7.131-.335a.335.335,0,0,1-.335.335h-.467v-1.71h.467a.335.335,0,0,1,.335.335Zm0,0" transform="translate(-229.059 -228.276)" fill="#56c596"/>
</svg>
