<svg xmlns="http://www.w3.org/2000/svg" width="22.752" height="22.752" viewBox="0 0 22.752 22.752">
  <path id="Path_3053" data-name="Path 3053" d="M485.584,106.134l7.27,7.27h-5.439l-4.55-4.55Zm-4.236-.314,1.2-1.2,1.2,1.2-1.2,1.2Zm13.572,15.088-5.988-5.987h5.439l3.268,3.267-.545,2.174Zm5.611,1.819-1.973-1.97.655-2.619c.008-.03,0-.056.006-.086a.986.986,0,0,0,.005-.157.7.7,0,0,0-.027-.139.727.727,0,0,0-.047-.137.959.959,0,0,0-.086-.127c-.02-.024-.03-.05-.05-.074l-12.357-12.357.981-.981a.758.758,0,0,0-1.072-1.072l-1.739,1.738-1.2-1.2.981-.981a.758.758,0,1,0-1.072-1.072l-5.309,5.309a.758.758,0,1,0,1.072,1.072l.981-.981,1.2,1.2-1.739,1.739a.758.758,0,1,0,1.072,1.072l.981-.981,12.357,12.357c.009.008.024.014.036.024a.689.689,0,0,0,.163.109c.024.012.047.027.071.039a.825.825,0,0,0,.267.051h0a.631.631,0,0,0,.181-.024l2.616-.651,1.973,1.97a.758.758,0,0,0,1.072-1.072" transform="translate(-478 -101.27)" fill="#56c596"/>
</svg>
