<svg xmlns="http://www.w3.org/2000/svg" width="40.343" height="43.369" viewBox="0 0 40.343 43.369">
  <g id="surface1" transform="translate(0)">
    <path id="Path_266" data-name="Path 266" d="M183.22,122.825a24.486,24.486,0,0,1,5.787-5.411,14.167,14.167,0,0,0,2.831-2.42,1.787,1.787,0,0,0,.428-.965.7.7,0,0,0-.262-.557.953.953,0,0,0-.746-.272,1,1,0,0,0-.774.272,2.731,2.731,0,0,0-.513,1.55l-.177,1.264-5.787-.462a8.91,8.91,0,0,1-6.78,2.923,9.045,9.045,0,0,1-7.25-3.412q-2.858-3.426-2.856-10.033,0-6.729,2.775-10.074a9.716,9.716,0,0,1,14.61-.041q2.752,3.3,2.747,10.006c0,.693-.028,1.359-.071,2a14.73,14.73,0,0,1,3.924-.449,16.891,16.891,0,0,1,3.687.354c.028-.571.053-1.129.053-1.727q0-9.5-4.818-14.859c-3.231-3.562-7.512-5.343-12.881-5.343a18.742,18.742,0,0,0-7.844,1.55,14.134,14.134,0,0,0-4.709,3.507,18.569,18.569,0,0,0-3.383,5.343,26.079,26.079,0,0,0-1.672,9.992q0,9.3,4.793,14.615t12.91,5.3a19.944,19.944,0,0,0,4.875-.585,13.019,13.019,0,0,1,1.1-2.066" transform="translate(-159.539 -85.168)" fill="#ffbe88"/>
    <path id="Path_267" data-name="Path 267" d="M184.856,114.676H166.07a11.919,11.919,0,0,1,1.961-5.236,26.405,26.405,0,0,1,6.133-5.78,18.884,18.884,0,0,0,3.528-3.107,3.5,3.5,0,0,0,.764-2.02,2.321,2.321,0,0,0-.764-1.756,2.636,2.636,0,0,0-1.909-.73,2.69,2.69,0,0,0-1.957.746,4.731,4.731,0,0,0-1.026,2.673l-6.261-.513a9.686,9.686,0,0,1,1.348-4.133,6.371,6.371,0,0,1,2.769-2.268,12.534,12.534,0,0,1,4.956-.792,14.131,14.131,0,0,1,5.143.746,6.283,6.283,0,0,1,2.888,2.315A6.147,6.147,0,0,1,184.7,98.33a7.167,7.167,0,0,1-1.213,3.931,16.455,16.455,0,0,1-4.379,4.118c-1.261.87-2.116,1.476-2.534,1.833a19.475,19.475,0,0,0-1.492,1.367h9.773" transform="translate(-144.513 -71.307)" fill="#ffbe88"/>
  </g>
</svg>
