<svg xmlns="http://www.w3.org/2000/svg" width="43.827" height="30.053" viewBox="0 0 43.827 30.053">
  <path id="Path_141" data-name="Path 141" d="M41.67,323.529c-.89.069-1.864.142-2.862.249l-.264.01c-.176.005-.352.015-.352.015a2.076,2.076,0,0,1-1.658-.46,2.717,2.717,0,0,1-.734-2.04v-8.59c1.727.715,3.292,1.444,3.85,2.812a1.252,1.252,0,0,0,2.319-.948c-1-2.456-3.483-3.474-5.669-4.369-.176-.073-.333-.142-.5-.21V299.2c.347-.493.523-.48,1.022-.386,6.643,1.227,11.5,13.054,11.5,18.743,0,5.46-1.145,5.547-6.652,5.968m-20.377-.185a2.046,2.046,0,0,1-1.648.46s-.181-.01-.362-.015l-.2,0c-1.061-.113-2.035-.185-2.925-.254-5.508-.421-6.652-.508-6.652-5.968,0-5.689,4.857-17.516,11.5-18.743a2.23,2.23,0,0,1,.391-.054c.24,0,.4.1.631.439V310c-.166.069-.323.138-.5.21-2.186.9-4.666,1.913-5.669,4.369a1.252,1.252,0,1,0,2.319.948c.558-1.369,2.123-2.1,3.849-2.812v8.59a2.717,2.717,0,0,1-.734,2.04m15.99-26.991a3.34,3.34,0,0,0-3.8,1.824,1.243,1.243,0,0,0-.186.655v9.876a2.789,2.789,0,0,1-1.252-2.421A1.269,1.269,0,0,0,32,306.1a1.1,1.1,0,0,0,.039-.18v-8.4a1.254,1.254,0,0,0-1.252-1.252H27.035a1.254,1.254,0,0,0-1.252,1.252v8.765a2.789,2.789,0,0,1-1.252,2.421v-9.876a1.243,1.243,0,0,0-.186-.655,3.342,3.342,0,0,0-3.8-1.824C12.273,297.889,7,311.14,7,317.561c0,7.782,3.566,8.057,8.966,8.467.871.064,1.824.138,2.866.244,0,0,.181.01.362.015l.215.01c.176.015.352.025.528.025a4.389,4.389,0,0,0,3.038-1.131,5.144,5.144,0,0,0,1.555-3.888v-9.691c1.976-1,3.757-2.464,3.757-5.326v-7.513h1.252v7.146a1.087,1.087,0,0,0,.039.18,1.253,1.253,0,0,0-.039.187c0,2.861,1.78,4.329,3.757,5.326V321.3a5.144,5.144,0,0,0,1.555,3.888,4.392,4.392,0,0,0,3.018,1.131,4.261,4.261,0,0,0,.5-.025l.264-.01c.181,0,.357-.015.367-.015,1.037-.106,1.991-.18,2.861-.244,5.4-.411,8.966-.685,8.966-8.467,0-6.421-5.273-19.672-13.544-21.208" transform="translate(-7 -296.27)" fill="#cdb3d4"/>
</svg>
