<svg xmlns="http://www.w3.org/2000/svg" width="28" height="28.728" viewBox="0 0 28 28.728">
  <g id="Icons_monitoring" data-name="Icons/ monitoring" transform="translate(1 1)" opacity="0.9">
    <g id="Icons_monitoring-2" data-name="Icons/ monitoring">
      <path id="Path" d="M0,2.025v16.2A2.019,2.019,0,0,0,2,20.25H24a2.019,2.019,0,0,0,2-2.025V2.025A2.019,2.019,0,0,0,24,0H2A2.019,2.019,0,0,0,0,2.025Z" fill="none" stroke="#68b2a0" stroke-linecap="round" stroke-linejoin="round" stroke-miterlimit="10" stroke-width="2"/>
      <path id="Path-2" data-name="Path" d="M0,.75H14" transform="translate(6 25.575)" fill="none" stroke="#68b2a0" stroke-linecap="round" stroke-linejoin="round" stroke-miterlimit="10" stroke-width="2"/>
      <path id="Path-3" data-name="Path" d="M1.8,0A10.87,10.87,0,0,1,0,6.075" transform="translate(8.2 20.25)" fill="none" stroke="#68b2a0" stroke-linecap="round" stroke-linejoin="round" stroke-miterlimit="10" stroke-width="2"/>
      <path id="Path-4" data-name="Path" d="M1.8,6.075A10.87,10.87,0,0,1,0,0" transform="translate(16 20.25)" fill="none" stroke="#68b2a0" stroke-linecap="round" stroke-linejoin="round" stroke-miterlimit="10" stroke-width="2"/>
      <path id="Path-5" data-name="Path" d="M0,3.037H5L7,1.012l2,4.05L11,0l2,3.037h5" transform="translate(4 7.088)" fill="none" stroke="#68b2a0" stroke-linecap="round" stroke-linejoin="round" stroke-miterlimit="10" stroke-width="2"/>
    </g>
  </g>
</svg>
