<svg xmlns="http://www.w3.org/2000/svg" width="44" height="41" viewBox="0 0 44 41">
  <g id="Group_197" data-name="Group 197" transform="translate(0.5 0.5)">
    <path id="Path_1005" data-name="Path 1005" d="M877.962,1516.362h-.235v-2.55H876.5v2.55H864.121v-2.55h-1.228v2.55h-.235a.645.645,0,0,0-.614.672v21.608a.645.645,0,0,0,.614.672h.235v4.643h-6.7a1.341,1.341,0,0,1-1.276-1.4v-1.8h.331a.645.645,0,0,0,.614-.672v-3.3a6.857,6.857,0,0,0,2.447-1.725,8.026,8.026,0,0,0,0-10.628,6.456,6.456,0,0,0-9.711,0,8.026,8.026,0,0,0,0,10.628,6.857,6.857,0,0,0,2.447,1.725v3.3a.645.645,0,0,0,.614.672h.142v1.8a4.619,4.619,0,0,0,4.393,4.808h6.7v.931H843.529a1.341,1.341,0,0,1-1.275-1.4v-6.713a.066.066,0,0,0,0-.007l.716-5.687a.715.715,0,0,0,.005-.081,6.011,6.011,0,0,0,1.36-1.587,11.647,11.647,0,0,0,0-11.122,6.016,6.016,0,0,0-1.361-1.587c0-.006,0-.012,0-.019v-2.143a.645.645,0,0,0-.614-.672h-3.4a.645.645,0,0,0-.614.672v2.143c0,.006,0,.013,0,.019a6.012,6.012,0,0,0-1.361,1.587,11.649,11.649,0,0,0,0,11.122,6.011,6.011,0,0,0,1.36,1.587.722.722,0,0,0,.005.081l.716,5.687a.716.716,0,0,0,.066.221v6.5a4.619,4.619,0,0,0,4.393,4.807h19.364v2.1h1.228v-2.1h4.726a4.62,4.62,0,0,0,4.393-4.807v-7.59H876.5v14.5h1.228v-14.5h.235a.645.645,0,0,0,.614-.672v-21.608A.645.645,0,0,0,877.962,1516.362Zm-.614,21.607h-3.4a6.6,6.6,0,0,0,1.229-4.217v-8.725c0-3.43-1.585-5.561-4.136-5.561h-7.767V1517.7h14.076v20.264Zm-5.335,8.934a3.328,3.328,0,0,1-3.165,3.463H843.53a3.328,3.328,0,0,1-3.165-3.463v-6.139h.661v6.139a2.633,2.633,0,0,0,2.5,2.74h25.319a2.633,2.633,0,0,0,2.5-2.74v-7.589h.661ZM836.8,1527.268a9.382,9.382,0,0,1,1.207-4.815,3.921,3.921,0,0,1,1.8-1.68h1.708a3.92,3.92,0,0,1,1.8,1.68,10.21,10.21,0,0,1,0,9.63,3.987,3.987,0,0,1-1.724,1.65h-1.856a3.986,3.986,0,0,1-1.724-1.65A9.384,9.384,0,0,1,836.8,1527.268Zm2.773-7.839v-.8h2.171v.8h-2.171Zm.09,15.648h1.99l-.006.052-.012.094-.528,4.2h-.9l-.464-3.686-.076-.606Zm9.795-.955a6.59,6.59,0,0,1,0-8.727,5.3,5.3,0,0,1,7.974,0,6.591,6.591,0,0,1,0,8.727,5.576,5.576,0,0,1-2.368,1.549.58.58,0,0,0-.155.079.688.688,0,0,0-.283.564v3.106h-2.362v-3.106a.667.667,0,0,0-.438-.644l-.034-.012A5.58,5.58,0,0,1,849.463,1534.122Zm3.562,6.642h.661v1.8a2.633,2.633,0,0,0,2.5,2.74h8.6a2.633,2.633,0,0,0,2.5-2.74v-3.247h.661v3.247a3.328,3.328,0,0,1-3.165,3.464h-8.6a3.328,3.328,0,0,1-3.165-3.464Zm10.247-19.953H867.9v17.159h-4.626Zm5.853,13.719V1520.81h1.114v17.159h-1.114Zm3.5,2.938a2.3,2.3,0,0,1-.614.338,2.6,2.6,0,0,1-.545.135v-17.1c2.227.3,2.48,2.992,2.48,4.187v8.725a6.007,6.007,0,0,1-.706,3.027A2.645,2.645,0,0,1,872.627,1537.467Zm-8.506,1.846h1.941v3.247a1.341,1.341,0,0,1-1.275,1.4h-.666Zm0,8.055h.666a4.619,4.619,0,0,0,4.393-4.808v-3.247h.943v7.589a1.341,1.341,0,0,1-1.275,1.4h-4.726Z" transform="translate(-835.576 -1513.811)" fill="none" stroke="#ffbe88" stroke-width="1"/>
    <path id="Path_1006" data-name="Path 1006" d="M978.621,1629.953a6.806,6.806,0,0,0,2.635.051,6.717,6.717,0,0,0,3.613-1.883,6.816,6.816,0,1,0-6.248,1.832Zm5.037-10.219a5.075,5.075,0,1,1-3.588-1.486A5.079,5.079,0,0,1,983.658,1619.734Z" transform="translate(-961.778 -1606.973)" fill="none" stroke="#ffbe88" stroke-width="1"/>
    <path id="Path_1007" data-name="Path 1007" d="M998.774,1643.252a1.408,1.408,0,0,0,1.585,1.585l1,1,.605-.605.605-.606-1-1a1.408,1.408,0,0,0-1.585-1.585l-2.336-2.336-.605.605-.605.606Z" transform="translate(-981.924 -1627.177)" fill="none" stroke="#ffbe88" stroke-width="1"/>
  </g>
</svg>
