<svg xmlns="http://www.w3.org/2000/svg" width="42.017" height="44.156" viewBox="0 0 42.017 44.156">
  <g id="Group_133" data-name="Group 133" transform="translate(1 1)">
    <path id="Path_503" data-name="Path 503" d="M235.843,179.356h-32.47a3.77,3.77,0,0,1-3.773-3.769V140.969a3.728,3.728,0,0,1,3.773-3.769h32.47a3.728,3.728,0,0,1,3.773,3.769v34.618a3.83,3.83,0,0,1-1.092,2.678A3.669,3.669,0,0,1,235.843,179.356ZM203.473,138.49a2.372,2.372,0,0,0-2.383,2.381v34.618a2.372,2.372,0,0,0,2.383,2.381h32.47a2.372,2.372,0,0,0,2.383-2.381V140.87a2.372,2.372,0,0,0-2.383-2.381Z" transform="translate(-199.6 -137.2)" fill="none" stroke="#47cacc" stroke-width="2"/>
    <path id="Path_504" data-name="Path 504" d="M234.933,176.3a.716.716,0,0,1-.733-.733V152.633a.733.733,0,1,1,1.466,0v22.938A.716.716,0,0,1,234.933,176.3Z" transform="translate(-200.153 -138.861)" fill="none" stroke="#47cacc" stroke-width="2"/>
    <path id="Path_505" data-name="Path 505" d="M204.733,176.3a.716.716,0,0,1-.733-.733V152.633a.733.733,0,1,1,1.466,0v22.938A.716.716,0,0,1,204.733,176.3Z" transform="translate(-199.392 -138.861)" fill="none" stroke="#47cacc" stroke-width="2"/>
    <path id="Path_506" data-name="Path 506" d="M225.987,151.712c-.192,0-.287-.1-.479-.209a8.476,8.476,0,0,0-12.45,0,.6.6,0,0,1-.958,0l-4.31-4.818a.744.744,0,0,1,0-1.047,15.228,15.228,0,0,1,22.985,0,.744.744,0,0,1,0,1.047l-4.31,4.818C226.274,151.607,226.178,151.712,225.987,151.712Zm-6.7-4.4a9.669,9.669,0,0,1,6.608,2.618l3.352-3.771a14.2,14.2,0,0,0-10.056-4.294,13.943,13.943,0,0,0-10.056,4.294l3.352,3.771A10.713,10.713,0,0,1,219.283,147.313Z" transform="translate(-199.222 -137.048)" fill="none" stroke="#47cacc" stroke-width="2"/>
    <path id="Path_507" data-name="Path 507" d="M219.833,148.637a.716.716,0,0,1-.733-.733v-3.771a.733.733,0,1,1,1.466,0V147.9A.716.716,0,0,1,219.833,148.637Z" transform="translate(-199.775 -136.906)" fill="none" stroke="#47cacc" stroke-width="2"/>
    <path id="Path_508" data-name="Path 508" d="M219.975,176.985a3.935,3.935,0,0,1-3.875-3.875V156.875a3.875,3.875,0,1,1,7.751,0V173.11a3.8,3.8,0,0,1-1.152,2.723A3.427,3.427,0,0,1,219.975,176.985Zm0-22.519a2.37,2.37,0,0,0-2.409,2.409V173.11a2.084,2.084,0,0,0,.733,1.676,2.472,2.472,0,0,0,1.676.733,2.084,2.084,0,0,0,1.676-.733,2.472,2.472,0,0,0,.733-1.676V156.875a2.436,2.436,0,0,0-2.409-2.409Z" transform="translate(-199.918 -138.809)" fill="none" stroke="#47cacc" stroke-width="2"/>
  </g>
</svg>
