<svg xmlns="http://www.w3.org/2000/svg" width="43.646" height="40.579" viewBox="0 0 43.646 40.579">
  <g id="Group_197" data-name="Group 197" transform="translate(0 0)">
    <g id="Group_240" data-name="Group 240" transform="translate(0)">
      <path id="Path_1282" data-name="Path 1282" d="M343.643,282.29c-7.543,0-13.678-6.884-13.678-15.346a16.048,16.048,0,0,1,5.112-11.954.741.741,0,0,1,.993,1.1,14.567,14.567,0,0,0-4.623,10.855c0,7.645,5.472,13.865,12.2,13.865s12.2-6.22,12.2-13.865a14.564,14.564,0,0,0-4.623-10.855.741.741,0,1,1,.993-1.1,16.05,16.05,0,0,1,5.112,11.954C357.322,275.406,351.185,282.29,343.643,282.29Z" transform="translate(-321.821 -245.919)" fill="#ffbe88"/>
      <path id="Path_1283" data-name="Path 1283" d="M334.982,279.937a.743.743,0,0,1-.165-.019h-3.24a7.342,7.342,0,0,1-6.211-3.475,18.59,18.59,0,0,1-2.789-9.746c0-.293.017-.583.034-.872a1.556,1.556,0,0,1,0-.192l.02-.2c.021-.307.055-.621.094-.934,1.026-9.248,5.272-13.155,8.082-15.741a6.152,6.152,0,0,1,4.177-2.013.741.741,0,1,1,0,1.482,4.78,4.78,0,0,0-3.162,1.609c-2.817,2.593-6.659,6.129-7.625,14.834-.036.3-.067.584-.087.875l-.009.1a.72.72,0,0,1,0,.1l-.01.177c-.015.26-.032.52-.032.784a17.114,17.114,0,0,0,2.57,8.97,5.851,5.851,0,0,0,4.95,2.769h4.766a.74.74,0,0,1,.01,1.48l-1.36.019Z" transform="translate(-322.577 -246.744)" fill="#ffbe88"/>
      <path id="Path_1284" data-name="Path 1284" d="M351.111,279.937l-1.37-.019a.74.74,0,0,1,.01-1.48h4.766a5.853,5.853,0,0,0,4.95-2.769,17.114,17.114,0,0,0,2.57-8.97c0-.264-.017-.524-.032-.784l-.011-.178a.618.618,0,0,1,0-.1l-.008-.079c-.02-.3-.053-.591-.088-.88-.966-8.712-4.807-12.247-7.613-14.829a4.8,4.8,0,0,0-3.174-1.622.741.741,0,1,1,0-1.482,6.171,6.171,0,0,1,4.189,2.024c2.8,2.574,7.043,6.482,8.069,15.737.038.306.072.621.094.938l.019.2a.627.627,0,0,1,0,.143c.02.333.038.623.038.916a18.6,18.6,0,0,1-2.789,9.746,7.342,7.342,0,0,1-6.211,3.475h-3.24A.834.834,0,0,1,351.111,279.937Z" transform="translate(-319.871 -246.744)" fill="#ffbe88"/>
      <path id="Path_1285" data-name="Path 1285" d="M342.442,274.575a.741.741,0,0,1-.741-.741v-1.84a.741.741,0,1,1,1.482,0v1.84A.74.74,0,0,1,342.442,274.575Z" transform="translate(-320.619 -244.234)" fill="#ffbe88"/>
      <path id="Path_1286" data-name="Path 1286" d="M343.447,273.571h-1.84a.741.741,0,0,1,0-1.482h1.84a.741.741,0,0,1,0,1.482Z" transform="translate(-320.704 -244.149)" fill="#ffbe88"/>
      <path id="Path_1287" data-name="Path 1287" d="M343.968,284.481c-5.941,0-17.176-.907-17.176-4.34v-4.9a.741.741,0,1,1,1.482,0v4.9c0,.854,5.34,2.858,15.695,2.858s15.695-2,15.695-2.858v-4.9a.741.741,0,0,1,1.482,0v4.9C361.143,283.574,349.909,284.481,343.968,284.481Z" transform="translate(-322.145 -243.902)" fill="#ffbe88"/>
    </g>
  </g>
</svg>
