<svg xmlns="http://www.w3.org/2000/svg" width="26.455" height="39.903" viewBox="0 0 26.455 39.903">
  <g id="Group_197" data-name="Group 197" transform="translate(0 0)">
    <path id="Path_1496" data-name="Path 1496" d="M1643.208,808.044l-.4-6.351a7.337,7.337,0,0,0-.985-3.227l-2.268-3.874a7.53,7.53,0,0,0-4.079-3.326l-1.291-.438a8.868,8.868,0,0,0,.412-2.869c0-.171-.008-.342-.023-.509a4.572,4.572,0,0,0-9.132,0c-.015.168-.023.339-.023.509a8.89,8.89,0,0,0,.408,2.856l-1.329.451a7.529,7.529,0,0,0-4.079,3.326l-2.268,3.874a7.337,7.337,0,0,0-.985,3.227l-.4,6.351a2.542,2.542,0,0,0,4.572,1.684,51.034,51.034,0,0,0,2.547,11.223,3.09,3.09,0,0,0,2.877,2.072h.035a3.081,3.081,0,0,0,3.081-3.088l-.016-7.217h.2l.056,7.248a3.09,3.09,0,0,0,3.081,3.057h.06a3.092,3.092,0,0,0,2.877-2.072,51.113,51.113,0,0,0,2.541-11.174,2.54,2.54,0,0,0,1.994.97c.054,0,.108,0,.162-.005a2.542,2.542,0,0,0,2.377-2.7Zm-1.492,1.081a1.393,1.393,0,0,1-2.436-.833l-.031-.489a.571.571,0,0,0-.015-.1,6.374,6.374,0,0,0,1.12-4.6,14.964,14.964,0,0,0-2.79-6.722l-.911.7a13.849,13.849,0,0,1,2.563,6.187,5.358,5.358,0,0,1-2.993,5.542l.511,1.029a6.853,6.853,0,0,0,.825-.485,49.619,49.619,0,0,1-2.513,11.221,1.939,1.939,0,0,1-1.8,1.3h-.046a1.937,1.937,0,0,1-1.931-1.917l-.061-7.83a.575.575,0,0,0-.574-.57h-.023c-.187.008-.371.011-.548.011h-.151c-.2,0-.4,0-.6-.014a.575.575,0,0,0-.6.575l.017,7.807a1.932,1.932,0,0,1-1.931,1.936h-.022a1.938,1.938,0,0,1-1.8-1.3,49.546,49.546,0,0,1-2.521-11.308,6.805,6.805,0,0,0,.948.571l.511-1.029a5.358,5.358,0,0,1-2.993-5.542,13.846,13.846,0,0,1,2.563-6.187l-.911-.7a14.971,14.971,0,0,0-2.79,6.722,6.368,6.368,0,0,0,1.021,4.459.57.57,0,0,0-.073.243l-.031.489a1.4,1.4,0,0,1-1.389,1.305c-.029,0-.059,0-.09,0a1.393,1.393,0,0,1-1.3-1.478l.4-6.351a6.182,6.182,0,0,1,.83-2.719l2.268-3.874a6.38,6.38,0,0,1,3.457-2.819l1.447-.491a4.518,4.518,0,0,0,7.381.012l1.411.479a6.38,6.38,0,0,1,3.457,2.819l2.268,3.874a6.18,6.18,0,0,1,.83,2.719l.4,6.351A1.383,1.383,0,0,1,1641.715,809.125Zm-15.149-21.167c0-.135.006-.271.018-.4a3.424,3.424,0,0,1,6.843,0c.012.132.018.268.018.4a7.7,7.7,0,0,1-.353,2.5,4.2,4.2,0,0,1-.224.531,3.325,3.325,0,0,1-.312.5,3.419,3.419,0,0,1-5.11-.012,3.327,3.327,0,0,1-.31-.5,4.224,4.224,0,0,1-.222-.532A7.72,7.72,0,0,1,1626.567,787.958Z" transform="translate(-1616.758 -783.12)" fill="#47cacc"/>
  </g>
</svg>
