<svg xmlns="http://www.w3.org/2000/svg" width="163" height="51.321" viewBox="0 0 163 51.321">
  <path id="Path_2958" data-name="Path 2958" d="M16.9,82.381H26.993c1.442,0,2.163-3.229,4.806-3.229s2.643,3.229,5.287,3.229h6.728c5.287,0,5.767-32.881,6.728-32.881s1.922,49.321,3.364,49.321,1.922-16.44,6.728-16.44H64c3.364,0,5.287-8.22,8.651-8.22,3.124,0,5.287,8.22,8.651,8.22h26.193c1.442,0,2.163-3.229,4.806-3.229s2.643,3.229,5.287,3.229h6.728c5.287,0,5.767-32.881,6.728-32.881s1.922,49.321,3.364,49.321,1.922-16.44,6.728-16.44H144.5c3.364,0,5.287-8.22,8.651-8.22,3.124,0,5.287,8.22,8.651,8.22h16.1" transform="translate(-15.9 -48.5)" fill="none" stroke="#fff" stroke-linecap="round" stroke-linejoin="round" stroke-miterlimit="10" stroke-width="2"/>
</svg>
