<svg xmlns="http://www.w3.org/2000/svg" width="38.083" height="37.931" viewBox="0 0 38.083 37.931">
  <g id="Group_197" data-name="Group 197" transform="translate(0)">
    <path id="Path_245" data-name="Path 245" d="M813.859,199.866a2.36,2.36,0,0,1-3.317,0L792.19,181.623a1.283,1.283,0,0,0-.892-.367,1.372,1.372,0,0,0-.417.07,7,7,0,0,1-7.284-1.652,6.939,6.939,0,0,1,.08-9.942,7.179,7.179,0,0,1,10.135.353,6.93,6.93,0,0,1,1.394,6.946,1.274,1.274,0,0,0,.307,1.319l8.449,8.4-.471.472a1.269,1.269,0,1,0,1.795,1.795l.476-.476,2.024,2.008-.486.481a1.269,1.269,0,1,0,1.795,1.795l.492-.491,2.019,2.008-.5.5a1.269,1.269,0,1,0,1.795,1.795l.5-.5.456.456a2.3,2.3,0,0,1,0,3.278m1.79-5.078-17.811-17.7a9.48,9.48,0,0,0-2.143-8.7,9.718,9.718,0,0,0-13.784-.481,9.524,9.524,0,0,0,9.024,16.056l17.818,17.707a4.882,4.882,0,0,0,8.33-3.441,4.8,4.8,0,0,0-1.433-3.436" transform="translate(-779 -165.154)" fill="#e7b7c8"/>
    <path id="Path_246" data-name="Path 246" d="M791.942,176.411a5.057,5.057,0,1,0-4.364,2.515,5,5,0,0,0,2.564-.72l8.6,8.6a1.269,1.269,0,1,0,1.8-1.795" transform="translate(-778.056 -168.77)" fill="#e7b7c8"/>
  </g>
</svg>
