<svg xmlns="http://www.w3.org/2000/svg" width="46" height="50" viewBox="0 0 46 50">
  <g id="Group_185" data-name="Group 185" transform="translate(0.5 0.5)">
    <g id="Group_175" data-name="Group 175" transform="translate(0 3.57)">
      <path id="Path_882" data-name="Path 882" d="M365.929,2396.339c-1.8,0-3.261-1.119-3.261-2.5V2379.9a.484.484,0,0,0-.935,0v13.943c0,1.376-1.463,2.5-3.261,2.5s-3.261-1.119-3.261-2.5v-25.5h-10.3c-1.65,0-2.992-1.027-2.992-2.29v-.411c0-1.263,1.342-2.29,2.992-2.29H379.5c1.65,0,2.992,1.027,2.992,2.29v.411c0,1.263-1.342,2.29-2.992,2.29h-10.3v25.5C369.191,2395.22,367.728,2396.339,365.929,2396.339Zm-3.729-18.233a2.13,2.13,0,0,1,2.347,1.8v13.943a1.432,1.432,0,0,0,2.765,0v-26.217a.851.851,0,0,1,.939-.719H379.5a1.011,1.011,0,0,0,1.114-.852v-.411a1.011,1.011,0,0,0-1.114-.852h-34.59a1.011,1.011,0,0,0-1.114.852v.411a1.011,1.011,0,0,0,1.114.852H356.15a.851.851,0,0,1,.939.719v26.217a1.432,1.432,0,0,0,2.765,0V2379.9A2.13,2.13,0,0,1,362.2,2378.106Z" transform="translate(-341.913 -2350.972)" fill="none" stroke="#47cacc" stroke-width="1"/>
      <path id="Path_883" data-name="Path 883" d="M464.466,2275.665a5.583,5.583,0,1,1,5.583-5.583A5.59,5.59,0,0,1,464.466,2275.665Zm0-9.287a3.7,3.7,0,1,0,3.7,3.7A3.708,3.708,0,0,0,464.466,2266.378Z" transform="translate(-444.231 -2264.499)" fill="none" stroke="#47cacc" stroke-width="1"/>
    </g>
    <path id="Path_884" data-name="Path 884" d="M313.242,2265.88H269.758a.962.962,0,0,1,0-1.88h43.483a.962.962,0,0,1,0,1.88Z" transform="translate(-269 -2260.493)" fill="none" stroke="#47cacc" stroke-width="1"/>
    <path id="Path_885" data-name="Path 885" d="M313.242,2694.88H269.758a.962.962,0,0,1,0-1.88h43.483a.961.961,0,0,1,0,1.88Z" transform="translate(-269 -2645.88)" fill="none" stroke="#47cacc" stroke-width="1"/>
    <path id="Path_886" data-name="Path 886" d="M306.94,2285a.871.871,0,0,1-.94-.778v-47.442a.956.956,0,0,1,1.879,0v47.442A.871.871,0,0,1,306.94,2285Z" transform="translate(-301.365 -2236)" fill="none" stroke="#47cacc" stroke-width="1"/>
  </g>
</svg>
